<svg xmlns="http://www.w3.org/2000/svg" viewBox="-6 -6 143 201" width="143" height="201"><defs><clipPath id="k1136_1"><path d="M17.0,22.0 C14.3,21.9 14.9,21.9 14.2,21.6 C13.5,21.4 13.0,21.0 12.7,20.5 C12.5,20.1 12.4,19.5 12.6,18.7 C12.8,18.0 13.0,17.7 13.9,16.2 C14.8,14.7 17.1,11.3 18.1,9.8 C19.2,8.3 19.5,8.0 20.3,7.3 C21.0,6.5 21.9,5.9 22.8,5.5 C23.7,5.0 24.7,4.6 25.7,4.4 C26.7,4.1 26.2,4.1 29.0,4.0 C31.8,3.9 38.1,4.0 42.7,4.0 C47.2,4.0 51.8,4.0 56.3,4.0 C60.9,4.0 65.4,4.0 70.0,4.0 C74.6,4.0 79.1,4.0 83.7,4.0 C88.2,4.0 92.8,4.0 97.3,4.0 C101.9,4.0 108.2,3.9 111.0,4.0 C113.8,4.1 113.3,4.1 114.3,4.4 C115.3,4.6 116.3,5.0 117.2,5.5 C118.1,5.9 119.0,6.5 119.7,7.3 C120.5,8.0 120.8,8.3 121.9,9.8 C122.9,11.3 125.2,14.7 126.1,16.2 C127.0,17.7 127.2,18.0 127.4,18.7 C127.6,19.5 127.5,20.1 127.3,20.5 C127.0,21.0 126.5,21.4 125.8,21.6 C125.1,21.9 125.7,21.9 123.0,22.0 C120.3,22.1 114.2,22.0 109.8,22.0 C105.3,22.0 100.9,22.0 96.5,22.0 C92.1,22.0 87.7,22.0 83.2,22.0 C78.8,22.0 74.4,22.0 70.0,22.0 C65.6,22.0 61.2,22.0 56.8,22.0 C52.3,22.0 47.9,22.0 43.5,22.0 C39.1,22.0 34.7,22.0 30.2,22.0 C25.8,22.0 19.7,22.1 17.0,22.0 Z"/></clipPath><clipPath id="k1136_2"><path d="M10.0,29.0 C10.1,26.2 10.1,26.8 10.4,25.9 C10.7,25.1 11.2,24.3 11.8,23.8 C12.3,23.2 13.1,22.7 13.9,22.4 C14.8,22.1 14.3,22.1 17.0,22.0 C19.7,21.9 25.8,22.0 30.2,22.0 C34.7,22.0 39.1,22.0 43.5,22.0 C47.9,22.0 52.3,22.0 56.8,22.0 C61.2,22.0 65.6,22.0 70.0,22.0 C74.4,22.0 78.8,22.0 83.2,22.0 C87.7,22.0 92.1,22.0 96.5,22.0 C100.9,22.0 105.3,22.0 109.8,22.0 C114.2,22.0 120.3,21.9 123.0,22.0 C125.7,22.1 125.2,22.1 126.1,22.4 C126.9,22.7 127.7,23.2 128.2,23.8 C128.8,24.3 129.3,25.1 129.6,25.9 C129.9,26.8 129.9,26.2 130.0,29.0 C130.1,31.8 130.0,38.2 130.0,42.8 C130.0,47.4 130.0,52.0 130.0,56.6 C130.0,61.2 130.0,65.8 130.0,70.5 C130.0,75.1 130.0,79.7 130.0,84.3 C130.0,88.9 130.0,93.5 130.0,98.1 C130.0,102.7 130.0,107.3 130.0,111.9 C130.0,116.5 130.0,121.1 130.0,125.7 C130.0,130.3 130.0,134.9 130.0,139.5 C130.0,144.2 130.0,148.8 130.0,153.4 C130.0,158.0 130.0,162.6 130.0,167.2 C130.0,171.8 130.1,178.2 130.0,181.0 C129.9,183.8 129.9,183.2 129.6,184.1 C129.3,184.9 128.8,185.7 128.2,186.2 C127.7,186.8 126.9,187.3 126.1,187.6 C125.2,187.9 125.7,187.9 123.0,188.0 C120.3,188.1 114.2,188.0 109.8,188.0 C105.3,188.0 100.9,188.0 96.5,188.0 C92.1,188.0 87.7,188.0 83.2,188.0 C78.8,188.0 74.4,188.0 70.0,188.0 C65.6,188.0 61.2,188.0 56.8,188.0 C52.3,188.0 47.9,188.0 43.5,188.0 C39.1,188.0 34.7,188.0 30.2,188.0 C25.8,188.0 19.7,188.1 17.0,188.0 C14.3,187.9 14.8,187.9 13.9,187.6 C13.1,187.3 12.3,186.8 11.8,186.2 C11.2,185.7 10.7,184.9 10.4,184.1 C10.1,183.2 10.1,183.8 10.0,181.0 C9.9,178.2 10.0,171.8 10.0,167.2 C10.0,162.6 10.0,158.0 10.0,153.4 C10.0,148.8 10.0,144.2 10.0,139.5 C10.0,134.9 10.0,130.3 10.0,125.7 C10.0,121.1 10.0,116.5 10.0,111.9 C10.0,107.3 10.0,102.7 10.0,98.1 C10.0,93.5 10.0,88.9 10.0,84.3 C10.0,79.7 10.0,75.1 10.0,70.5 C10.0,65.8 10.0,61.2 10.0,56.6 C10.0,52.0 10.0,47.4 10.0,42.8 C10.0,38.2 9.9,31.8 10.0,29.0 Z"/></clipPath><clipPath id="k1136_3"><path d="M30.0,106.0 C30.0,104.9 30.1,103.8 30.2,102.7 C30.3,101.6 30.4,100.5 30.6,99.4 C30.8,98.3 31.1,97.2 31.4,96.2 C31.7,95.1 32.0,94.0 32.4,93.0 C32.8,92.0 33.3,90.9 33.7,89.9 C34.2,88.9 34.8,88.0 35.4,87.0 C35.9,86.0 36.6,85.1 37.2,84.2 C37.9,83.3 38.6,82.4 39.4,81.6 C40.1,80.7 40.9,79.9 41.7,79.1 C42.5,78.3 43.4,77.6 44.3,76.9 C45.2,76.2 46.1,75.5 47.1,74.9 C48.0,74.2 49.0,73.6 50.0,73.1 C51.0,72.5 52.0,72.0 53.1,71.6 C54.1,71.1 55.2,70.7 56.3,70.3 C57.4,69.9 58.5,69.6 59.6,69.3 C60.8,69.0 61.9,68.8 63.1,68.6 C64.2,68.4 65.4,68.2 66.5,68.1 C67.7,68.0 68.8,68.0 70.0,68.0 C71.2,68.0 72.3,68.0 73.5,68.1 C74.6,68.2 76.0,67.7 76.9,68.6 C77.9,69.5 78.5,72.0 79.2,73.5 C79.8,75.0 80.3,76.5 80.9,77.6 C81.5,78.7 82.0,79.5 82.7,80.1 C83.5,80.6 84.2,80.8 85.3,80.9 C86.3,80.9 87.5,80.6 89.0,80.2 C90.4,79.9 92.6,78.9 93.9,78.9 C95.2,79.0 96.6,79.3 96.9,80.4 C97.3,81.5 96.2,83.9 95.9,85.3 C95.6,86.8 95.3,88.1 95.3,89.2 C95.3,90.2 95.5,91.0 96.0,91.7 C96.5,92.5 97.3,92.9 98.4,93.4 C99.5,93.9 101.0,94.3 102.5,94.8 C104.1,95.3 106.6,95.6 107.7,96.4 C108.9,97.2 109.0,98.4 109.4,99.4 C109.7,100.4 109.7,101.6 109.8,102.7 C109.9,103.8 110.0,104.9 110.0,106.0 C110.0,107.1 109.9,108.2 109.8,109.3 C109.7,110.4 109.6,111.5 109.4,112.6 C109.2,113.7 108.9,114.8 108.6,115.8 C108.3,116.9 108.0,118.0 107.6,119.0 C107.2,120.0 106.7,121.1 106.3,122.1 C105.8,123.1 105.2,124.0 104.6,125.0 C104.1,126.0 103.4,126.9 102.8,127.8 C102.1,128.7 101.4,129.6 100.6,130.4 C99.9,131.3 99.1,132.1 98.3,132.9 C97.5,133.7 96.6,134.4 95.7,135.1 C94.8,135.8 93.9,136.5 92.9,137.1 C92.0,137.8 91.0,138.4 90.0,138.9 C89.0,139.5 88.0,140.0 86.9,140.4 C85.9,140.9 84.8,141.3 83.7,141.7 C82.6,142.1 81.5,142.4 80.4,142.7 C79.2,143.0 78.1,143.2 76.9,143.4 C75.8,143.6 74.6,143.8 73.5,143.9 C72.3,144.0 71.2,144.0 70.0,144.0 C68.8,144.0 67.7,144.0 66.5,143.9 C65.4,143.8 64.2,143.6 63.1,143.4 C61.9,143.2 60.8,143.0 59.6,142.7 C58.5,142.4 57.4,142.1 56.3,141.7 C55.2,141.3 54.1,140.9 53.1,140.4 C52.0,140.0 51.0,139.5 50.0,138.9 C49.0,138.4 48.0,137.8 47.1,137.1 C46.1,136.5 45.2,135.8 44.3,135.1 C43.4,134.4 42.5,133.7 41.7,132.9 C40.9,132.1 40.1,131.3 39.4,130.4 C38.6,129.6 37.9,128.7 37.2,127.8 C36.6,126.9 35.9,126.0 35.4,125.0 C34.8,124.0 34.2,123.1 33.7,122.1 C33.3,121.1 32.8,120.0 32.4,119.0 C32.0,118.0 31.7,116.9 31.4,115.8 C31.1,114.8 30.8,113.7 30.6,112.6 C30.4,111.5 30.3,110.4 30.2,109.3 C30.1,108.2 30.0,107.1 30.0,106.0 Z"/></clipPath></defs>
  <path d="M17.0,22.0 C14.3,21.9 14.9,21.9 14.2,21.6 C13.5,21.4 13.0,21.0 12.7,20.5 C12.5,20.1 12.4,19.5 12.6,18.7 C12.8,18.0 13.0,17.7 13.9,16.2 C14.8,14.7 17.1,11.3 18.1,9.8 C19.2,8.3 19.5,8.0 20.3,7.3 C21.0,6.5 21.9,5.9 22.8,5.5 C23.7,5.0 24.7,4.6 25.7,4.4 C26.7,4.1 26.2,4.1 29.0,4.0 C31.8,3.9 38.1,4.0 42.7,4.0 C47.2,4.0 51.8,4.0 56.3,4.0 C60.9,4.0 65.4,4.0 70.0,4.0 C74.6,4.0 79.1,4.0 83.7,4.0 C88.2,4.0 92.8,4.0 97.3,4.0 C101.9,4.0 108.2,3.9 111.0,4.0 C113.8,4.1 113.3,4.1 114.3,4.4 C115.3,4.6 116.3,5.0 117.2,5.5 C118.1,5.9 119.0,6.5 119.7,7.3 C120.5,8.0 120.8,8.3 121.9,9.8 C122.9,11.3 125.2,14.7 126.1,16.2 C127.0,17.7 127.2,18.0 127.4,18.7 C127.6,19.5 127.5,20.1 127.3,20.5 C127.0,21.0 126.5,21.4 125.8,21.6 C125.1,21.9 125.7,21.9 123.0,22.0 C120.3,22.1 114.2,22.0 109.8,22.0 C105.3,22.0 100.9,22.0 96.5,22.0 C92.1,22.0 87.7,22.0 83.2,22.0 C78.8,22.0 74.4,22.0 70.0,22.0 C65.6,22.0 61.2,22.0 56.8,22.0 C52.3,22.0 47.9,22.0 43.5,22.0 C39.1,22.0 34.7,22.0 30.2,22.0 C25.8,22.0 19.7,22.1 17.0,22.0 Z" fill="#2FAC1E"/>
  <g clip-path="url(#k1136_1)"><path d="M98.1,5.0 C98.5,1.5 98.5,2.8 98.9,1.9 C99.2,1.0 99.7,0.3 100.4,-0.3 C101.0,-0.8 101.8,-1.3 102.7,-1.6 C103.6,-1.9 101.1,-1.9 105.8,-2.0 C110.5,-2.1 126.3,-2.1 131.0,-2.0 C135.7,-1.9 133.2,-1.9 134.1,-1.6 C134.9,-1.3 135.7,-0.8 136.2,-0.2 C136.8,0.3 137.3,1.1 137.6,1.9 C137.9,2.8 137.9,1.5 138.0,5.0 C138.1,8.5 138.1,19.5 138.0,23.0 C137.9,26.5 137.9,25.2 137.6,26.1 C137.3,26.9 136.8,27.7 136.2,28.2 C135.7,28.8 134.9,29.3 134.1,29.6 C133.2,29.9 133.9,29.9 131.0,30.0 C128.1,30.1 121.6,30.0 116.9,30.0 C112.2,30.0 105.7,30.1 102.8,30.0 C99.9,29.9 100.6,29.9 99.8,29.6 C98.9,29.3 98.2,28.8 97.7,28.3 C97.2,27.7 96.8,27.0 96.6,26.1 C96.4,25.2 96.2,26.5 96.5,23.0 C96.7,19.5 97.7,8.5 98.1,5.0 Z" fill="#2E900F"/><path d="M19.6,11.8 C19.7,10.9 19.7,10.0 20.0,9.3 C20.2,8.6 20.5,8.0 21.0,7.6 C21.5,7.1 22.1,6.7 22.8,6.5 C23.5,6.3 24.3,6.2 25.2,6.2 C26.2,6.1 27.4,6.1 28.4,6.2 C29.3,6.2 30.1,6.3 30.8,6.5 C31.5,6.7 32.1,7.1 32.6,7.6 C33.1,8.0 33.4,8.6 33.6,9.3 C33.9,10.0 33.9,10.9 34.0,11.8 C34.1,12.7 34.1,13.7 34.0,14.6 C33.9,15.5 33.9,16.3 33.6,17.0 C33.4,17.7 33.1,18.3 32.6,18.8 C32.1,19.3 31.5,19.6 30.8,19.8 C30.1,20.1 29.3,20.1 28.4,20.2 C27.4,20.3 26.2,20.3 25.2,20.2 C24.3,20.1 23.5,20.1 22.8,19.8 C22.1,19.6 21.5,19.3 21.0,18.8 C20.5,18.3 20.2,17.7 20.0,17.0 C19.7,16.3 19.7,15.5 19.6,14.6 C19.5,13.7 19.5,12.7 19.6,11.8 Z" fill="#82D57D"/></g>
  <path d="M17.0,22.0 C14.3,21.9 14.9,21.9 14.2,21.6 C13.5,21.4 13.0,21.0 12.7,20.5 C12.5,20.1 12.4,19.5 12.6,18.7 C12.8,18.0 13.0,17.7 13.9,16.2 C14.8,14.7 17.1,11.3 18.1,9.8 C19.2,8.3 19.5,8.0 20.3,7.3 C21.0,6.5 21.9,5.9 22.8,5.5 C23.7,5.0 24.7,4.6 25.7,4.4 C26.7,4.1 26.2,4.1 29.0,4.0 C31.8,3.9 38.1,4.0 42.7,4.0 C47.2,4.0 51.8,4.0 56.3,4.0 C60.9,4.0 65.4,4.0 70.0,4.0 C74.6,4.0 79.1,4.0 83.7,4.0 C88.2,4.0 92.8,4.0 97.3,4.0 C101.9,4.0 108.2,3.9 111.0,4.0 C113.8,4.1 113.3,4.1 114.3,4.4 C115.3,4.6 116.3,5.0 117.2,5.5 C118.1,5.9 119.0,6.5 119.7,7.3 C120.5,8.0 120.8,8.3 121.9,9.8 C122.9,11.3 125.2,14.7 126.1,16.2 C127.0,17.7 127.2,18.0 127.4,18.7 C127.6,19.5 127.5,20.1 127.3,20.5 C127.0,21.0 126.5,21.4 125.8,21.6 C125.1,21.9 125.7,21.9 123.0,22.0 C120.3,22.1 114.2,22.0 109.8,22.0 C105.3,22.0 100.9,22.0 96.5,22.0 C92.1,22.0 87.7,22.0 83.2,22.0 C78.8,22.0 74.4,22.0 70.0,22.0 C65.6,22.0 61.2,22.0 56.8,22.0 C52.3,22.0 47.9,22.0 43.5,22.0 C39.1,22.0 34.7,22.0 30.2,22.0 C25.8,22.0 19.7,22.1 17.0,22.0 Z" fill="none" stroke="#2A1B4A" stroke-width="3.0" stroke-linecap="round" stroke-linejoin="round"/>
  <path d="M10.0,29.0 C10.1,26.2 10.1,26.8 10.4,25.9 C10.7,25.1 11.2,24.3 11.8,23.8 C12.3,23.2 13.1,22.7 13.9,22.4 C14.8,22.1 14.3,22.1 17.0,22.0 C19.7,21.9 25.8,22.0 30.2,22.0 C34.7,22.0 39.1,22.0 43.5,22.0 C47.9,22.0 52.3,22.0 56.8,22.0 C61.2,22.0 65.6,22.0 70.0,22.0 C74.4,22.0 78.8,22.0 83.2,22.0 C87.7,22.0 92.1,22.0 96.5,22.0 C100.9,22.0 105.3,22.0 109.8,22.0 C114.2,22.0 120.3,21.9 123.0,22.0 C125.7,22.1 125.2,22.1 126.1,22.4 C126.9,22.7 127.7,23.2 128.2,23.8 C128.8,24.3 129.3,25.1 129.6,25.9 C129.9,26.8 129.9,26.2 130.0,29.0 C130.1,31.8 130.0,38.2 130.0,42.8 C130.0,47.4 130.0,52.0 130.0,56.6 C130.0,61.2 130.0,65.8 130.0,70.5 C130.0,75.1 130.0,79.7 130.0,84.3 C130.0,88.9 130.0,93.5 130.0,98.1 C130.0,102.7 130.0,107.3 130.0,111.9 C130.0,116.5 130.0,121.1 130.0,125.7 C130.0,130.3 130.0,134.9 130.0,139.5 C130.0,144.2 130.0,148.8 130.0,153.4 C130.0,158.0 130.0,162.6 130.0,167.2 C130.0,171.8 130.1,178.2 130.0,181.0 C129.9,183.8 129.9,183.2 129.6,184.1 C129.3,184.9 128.8,185.7 128.2,186.2 C127.7,186.8 126.9,187.3 126.1,187.6 C125.2,187.9 125.7,187.9 123.0,188.0 C120.3,188.1 114.2,188.0 109.8,188.0 C105.3,188.0 100.9,188.0 96.5,188.0 C92.1,188.0 87.7,188.0 83.2,188.0 C78.8,188.0 74.4,188.0 70.0,188.0 C65.6,188.0 61.2,188.0 56.8,188.0 C52.3,188.0 47.9,188.0 43.5,188.0 C39.1,188.0 34.7,188.0 30.2,188.0 C25.8,188.0 19.7,188.1 17.0,188.0 C14.3,187.9 14.8,187.9 13.9,187.6 C13.1,187.3 12.3,186.8 11.8,186.2 C11.2,185.7 10.7,184.9 10.4,184.1 C10.1,183.2 10.1,183.8 10.0,181.0 C9.9,178.2 10.0,171.8 10.0,167.2 C10.0,162.6 10.0,158.0 10.0,153.4 C10.0,148.8 10.0,144.2 10.0,139.5 C10.0,134.9 10.0,130.3 10.0,125.7 C10.0,121.1 10.0,116.5 10.0,111.9 C10.0,107.3 10.0,102.7 10.0,98.1 C10.0,93.5 10.0,88.9 10.0,84.3 C10.0,79.7 10.0,75.1 10.0,70.5 C10.0,65.8 10.0,61.2 10.0,56.6 C10.0,52.0 10.0,47.4 10.0,42.8 C10.0,38.2 9.9,31.8 10.0,29.0 Z" fill="#32CD32"/>
  <g clip-path="url(#k1136_2)"><path d="M98.7,23.0 C98.8,20.2 98.9,20.8 99.2,19.9 C99.5,19.1 99.9,18.3 100.5,17.7 C101.1,17.2 101.9,16.7 102.7,16.4 C103.6,16.1 101.1,16.1 105.8,16.0 C110.5,15.9 126.3,15.9 131.0,16.0 C135.7,16.1 133.2,16.1 134.1,16.4 C134.9,16.7 135.7,17.2 136.2,17.8 C136.8,18.3 137.3,19.1 137.6,19.9 C137.9,20.8 137.9,20.2 138.0,23.0 C138.1,25.8 138.0,32.2 138.0,36.8 C138.0,41.4 138.0,46.1 138.0,50.7 C138.0,55.3 138.0,59.9 138.0,64.5 C138.0,69.1 138.0,73.7 138.0,78.3 C138.0,82.9 138.0,87.6 138.0,92.2 C138.0,96.8 138.0,101.4 138.0,106.0 C138.0,110.6 138.0,115.2 138.0,119.8 C138.0,124.4 138.0,129.1 138.0,133.7 C138.0,138.3 138.0,142.9 138.0,147.5 C138.0,152.1 138.0,156.7 138.0,161.3 C138.0,165.9 138.0,170.6 138.0,175.2 C138.0,179.8 138.1,186.2 138.0,189.0 C137.9,191.8 137.9,191.2 137.6,192.1 C137.3,192.9 136.8,193.7 136.2,194.2 C135.7,194.8 134.9,195.3 134.1,195.6 C133.2,195.9 133.9,195.9 131.0,196.0 C128.1,196.1 121.6,196.0 116.9,196.0 C112.2,196.0 105.7,196.1 102.8,196.0 C99.9,195.9 100.6,195.9 99.7,195.6 C98.9,195.3 98.2,194.8 97.6,194.3 C97.0,193.7 96.6,192.9 96.3,192.1 C96.0,191.2 95.9,191.8 95.9,189.0 C95.9,186.2 96.1,179.8 96.1,175.2 C96.2,170.6 96.3,165.9 96.4,161.3 C96.5,156.7 96.5,152.1 96.6,147.5 C96.7,142.9 96.8,138.3 96.8,133.7 C96.9,129.1 97.0,124.4 97.1,119.8 C97.1,115.2 97.2,110.6 97.3,106.0 C97.4,101.4 97.5,96.8 97.5,92.2 C97.6,87.6 97.7,82.9 97.8,78.3 C97.8,73.7 97.9,69.1 98.0,64.5 C98.1,59.9 98.1,55.3 98.2,50.7 C98.3,46.1 98.4,41.4 98.5,36.8 C98.5,32.2 98.6,25.8 98.7,23.0 Z" fill="#2FAC1E"/><path d="M19.6,47.7 C19.7,45.1 19.7,45.9 20.0,45.2 C20.2,44.4 20.6,43.8 21.0,43.4 C21.5,42.9 22.1,42.5 22.8,42.3 C23.6,42.0 24.5,42.0 25.4,41.9 C26.3,41.9 27.3,41.9 28.2,41.9 C29.1,42.0 30.0,42.0 30.8,42.3 C31.5,42.5 32.1,42.9 32.6,43.4 C33.0,43.8 33.4,44.4 33.6,45.2 C33.9,45.9 33.9,45.1 34.0,47.7 C34.1,50.3 34.0,56.4 34.0,60.8 C34.0,65.2 34.0,69.5 34.0,73.9 C34.0,78.3 34.0,82.6 34.0,87.0 C34.0,91.4 34.0,95.7 34.0,100.1 C34.0,104.5 34.0,108.8 34.0,113.2 C34.0,117.6 34.0,122.0 34.0,126.3 C34.0,130.7 34.0,135.1 34.0,139.4 C34.0,143.8 34.0,148.2 34.0,152.5 C34.0,156.9 34.1,163.0 34.0,165.6 C33.9,168.2 33.9,167.4 33.6,168.2 C33.4,168.9 33.0,169.5 32.6,170.0 C32.1,170.4 31.5,170.8 30.8,171.0 C30.0,171.3 29.1,171.3 28.2,171.4 C27.3,171.5 26.3,171.5 25.4,171.4 C24.5,171.3 23.6,171.3 22.8,171.0 C22.1,170.8 21.5,170.4 21.0,170.0 C20.6,169.5 20.2,168.9 20.0,168.2 C19.7,167.4 19.7,168.2 19.6,165.6 C19.5,163.0 19.6,156.9 19.6,152.5 C19.6,148.2 19.6,143.8 19.6,139.4 C19.6,135.1 19.6,130.7 19.6,126.3 C19.6,122.0 19.6,117.6 19.6,113.2 C19.6,108.8 19.6,104.5 19.6,100.1 C19.6,95.7 19.6,91.4 19.6,87.0 C19.6,82.6 19.6,78.3 19.6,73.9 C19.6,69.5 19.6,65.2 19.6,60.8 C19.6,56.4 19.5,50.3 19.6,47.7 Z" fill="#9BFAA1"/></g>
  <path d="M10.0,29.0 C10.1,26.2 10.1,26.8 10.4,25.9 C10.7,25.1 11.2,24.3 11.8,23.8 C12.3,23.2 13.1,22.7 13.9,22.4 C14.8,22.1 14.3,22.1 17.0,22.0 C19.7,21.9 25.8,22.0 30.2,22.0 C34.7,22.0 39.1,22.0 43.5,22.0 C47.9,22.0 52.3,22.0 56.8,22.0 C61.2,22.0 65.6,22.0 70.0,22.0 C74.4,22.0 78.8,22.0 83.2,22.0 C87.7,22.0 92.1,22.0 96.5,22.0 C100.9,22.0 105.3,22.0 109.8,22.0 C114.2,22.0 120.3,21.9 123.0,22.0 C125.7,22.1 125.2,22.1 126.1,22.4 C126.9,22.7 127.7,23.2 128.2,23.8 C128.8,24.3 129.3,25.1 129.6,25.9 C129.9,26.8 129.9,26.2 130.0,29.0 C130.1,31.8 130.0,38.2 130.0,42.8 C130.0,47.4 130.0,52.0 130.0,56.6 C130.0,61.2 130.0,65.8 130.0,70.5 C130.0,75.1 130.0,79.7 130.0,84.3 C130.0,88.9 130.0,93.5 130.0,98.1 C130.0,102.7 130.0,107.3 130.0,111.9 C130.0,116.5 130.0,121.1 130.0,125.7 C130.0,130.3 130.0,134.9 130.0,139.5 C130.0,144.2 130.0,148.8 130.0,153.4 C130.0,158.0 130.0,162.6 130.0,167.2 C130.0,171.8 130.1,178.2 130.0,181.0 C129.9,183.8 129.9,183.2 129.6,184.1 C129.3,184.9 128.8,185.7 128.2,186.2 C127.7,186.8 126.9,187.3 126.1,187.6 C125.2,187.9 125.7,187.9 123.0,188.0 C120.3,188.1 114.2,188.0 109.8,188.0 C105.3,188.0 100.9,188.0 96.5,188.0 C92.1,188.0 87.7,188.0 83.2,188.0 C78.8,188.0 74.4,188.0 70.0,188.0 C65.6,188.0 61.2,188.0 56.8,188.0 C52.3,188.0 47.9,188.0 43.5,188.0 C39.1,188.0 34.7,188.0 30.2,188.0 C25.8,188.0 19.7,188.1 17.0,188.0 C14.3,187.9 14.8,187.9 13.9,187.6 C13.1,187.3 12.3,186.8 11.8,186.2 C11.2,185.7 10.7,184.9 10.4,184.1 C10.1,183.2 10.1,183.8 10.0,181.0 C9.9,178.2 10.0,171.8 10.0,167.2 C10.0,162.6 10.0,158.0 10.0,153.4 C10.0,148.8 10.0,144.2 10.0,139.5 C10.0,134.9 10.0,130.3 10.0,125.7 C10.0,121.1 10.0,116.5 10.0,111.9 C10.0,107.3 10.0,102.7 10.0,98.1 C10.0,93.5 10.0,88.9 10.0,84.3 C10.0,79.7 10.0,75.1 10.0,70.5 C10.0,65.8 10.0,61.2 10.0,56.6 C10.0,52.0 10.0,47.4 10.0,42.8 C10.0,38.2 9.9,31.8 10.0,29.0 Z" fill="none" stroke="#2A1B4A" stroke-width="3.0" stroke-linecap="round" stroke-linejoin="round"/>
  <path d="M10.0,37.0 C10.1,33.8 10.1,34.8 10.4,33.9 C10.7,33.1 11.2,32.3 11.8,31.8 C12.3,31.2 13.1,30.7 13.9,30.4 C14.8,30.1 14.3,30.1 17.0,30.0 C19.7,29.9 25.8,30.0 30.2,30.0 C34.7,30.0 39.1,30.0 43.5,30.0 C47.9,30.0 52.3,30.0 56.8,30.0 C61.2,30.0 65.6,30.0 70.0,30.0 C74.4,30.0 78.8,30.0 83.2,30.0 C87.7,30.0 92.1,30.0 96.5,30.0 C100.9,30.0 105.3,30.0 109.8,30.0 C114.2,30.0 120.3,29.9 123.0,30.0 C125.7,30.1 125.2,30.1 126.1,30.4 C126.9,30.7 127.7,31.2 128.2,31.8 C128.8,32.3 129.3,33.1 129.6,33.9 C129.9,34.8 129.9,33.8 130.0,37.0 C130.1,40.2 130.1,49.8 130.0,53.0 C129.9,56.2 129.9,55.2 129.6,56.1 C129.3,56.9 128.8,57.7 128.2,58.2 C127.7,58.8 126.9,59.3 126.1,59.6 C125.2,59.9 125.7,59.9 123.0,60.0 C120.3,60.1 114.2,60.0 109.8,60.0 C105.3,60.0 100.9,60.0 96.5,60.0 C92.1,60.0 87.7,60.0 83.2,60.0 C78.8,60.0 74.4,60.0 70.0,60.0 C65.6,60.0 61.2,60.0 56.8,60.0 C52.3,60.0 47.9,60.0 43.5,60.0 C39.1,60.0 34.7,60.0 30.2,60.0 C25.8,60.0 19.7,60.1 17.0,60.0 C14.3,59.9 14.8,59.9 13.9,59.6 C13.1,59.3 12.3,58.8 11.8,58.2 C11.2,57.7 10.7,56.9 10.4,56.1 C10.1,55.2 10.1,56.2 10.0,53.0 C9.9,49.8 9.9,40.2 10.0,37.0 Z" fill="#FF4FA3"/>
  <path d="M10.0,37.0 C10.1,33.8 10.1,34.8 10.4,33.9 C10.7,33.1 11.2,32.3 11.8,31.8 C12.3,31.2 13.1,30.7 13.9,30.4 C14.8,30.1 14.3,30.1 17.0,30.0 C19.7,29.9 25.8,30.0 30.2,30.0 C34.7,30.0 39.1,30.0 43.5,30.0 C47.9,30.0 52.3,30.0 56.8,30.0 C61.2,30.0 65.6,30.0 70.0,30.0 C74.4,30.0 78.8,30.0 83.2,30.0 C87.7,30.0 92.1,30.0 96.5,30.0 C100.9,30.0 105.3,30.0 109.8,30.0 C114.2,30.0 120.3,29.9 123.0,30.0 C125.7,30.1 125.2,30.1 126.1,30.4 C126.9,30.7 127.7,31.2 128.2,31.8 C128.8,32.3 129.3,33.1 129.6,33.9 C129.9,34.8 129.9,33.8 130.0,37.0 C130.1,40.2 130.1,49.8 130.0,53.0 C129.9,56.2 129.9,55.2 129.6,56.1 C129.3,56.9 128.8,57.7 128.2,58.2 C127.7,58.8 126.9,59.3 126.1,59.6 C125.2,59.9 125.7,59.9 123.0,60.0 C120.3,60.1 114.2,60.0 109.8,60.0 C105.3,60.0 100.9,60.0 96.5,60.0 C92.1,60.0 87.7,60.0 83.2,60.0 C78.8,60.0 74.4,60.0 70.0,60.0 C65.6,60.0 61.2,60.0 56.8,60.0 C52.3,60.0 47.9,60.0 43.5,60.0 C39.1,60.0 34.7,60.0 30.2,60.0 C25.8,60.0 19.7,60.1 17.0,60.0 C14.3,59.9 14.8,59.9 13.9,59.6 C13.1,59.3 12.3,58.8 11.8,58.2 C11.2,57.7 10.7,56.9 10.4,56.1 C10.1,55.2 10.1,56.2 10.0,53.0 C9.9,49.8 9.9,40.2 10.0,37.0 Z" fill="none" stroke="#2A1B4A" stroke-width="3.0" stroke-linecap="round" stroke-linejoin="round"/>
  <path d="M30.0,106.0 C30.0,104.9 30.1,103.8 30.2,102.7 C30.3,101.6 30.4,100.5 30.6,99.4 C30.8,98.3 31.1,97.2 31.4,96.2 C31.7,95.1 32.0,94.0 32.4,93.0 C32.8,92.0 33.3,90.9 33.7,89.9 C34.2,88.9 34.8,88.0 35.4,87.0 C35.9,86.0 36.6,85.1 37.2,84.2 C37.9,83.3 38.6,82.4 39.4,81.6 C40.1,80.7 40.9,79.9 41.7,79.1 C42.5,78.3 43.4,77.6 44.3,76.9 C45.2,76.2 46.1,75.5 47.1,74.9 C48.0,74.2 49.0,73.6 50.0,73.1 C51.0,72.5 52.0,72.0 53.1,71.6 C54.1,71.1 55.2,70.7 56.3,70.3 C57.4,69.9 58.5,69.6 59.6,69.3 C60.8,69.0 61.9,68.8 63.1,68.6 C64.2,68.4 65.4,68.2 66.5,68.1 C67.7,68.0 68.8,68.0 70.0,68.0 C71.2,68.0 72.3,68.0 73.5,68.1 C74.6,68.2 76.0,67.7 76.9,68.6 C77.9,69.5 78.5,72.0 79.2,73.5 C79.8,75.0 80.3,76.5 80.9,77.6 C81.5,78.7 82.0,79.5 82.7,80.1 C83.5,80.6 84.2,80.8 85.3,80.9 C86.3,80.9 87.5,80.6 89.0,80.2 C90.4,79.9 92.6,78.9 93.9,78.9 C95.2,79.0 96.6,79.3 96.9,80.4 C97.3,81.5 96.2,83.9 95.9,85.3 C95.6,86.8 95.3,88.1 95.3,89.2 C95.3,90.2 95.5,91.0 96.0,91.7 C96.5,92.5 97.3,92.9 98.4,93.4 C99.5,93.9 101.0,94.3 102.5,94.8 C104.1,95.3 106.6,95.6 107.7,96.4 C108.9,97.2 109.0,98.4 109.4,99.4 C109.7,100.4 109.7,101.6 109.8,102.7 C109.9,103.8 110.0,104.9 110.0,106.0 C110.0,107.1 109.9,108.2 109.8,109.3 C109.7,110.4 109.6,111.5 109.4,112.6 C109.2,113.7 108.9,114.8 108.6,115.8 C108.3,116.9 108.0,118.0 107.6,119.0 C107.2,120.0 106.7,121.1 106.3,122.1 C105.8,123.1 105.2,124.0 104.6,125.0 C104.1,126.0 103.4,126.9 102.8,127.8 C102.1,128.7 101.4,129.6 100.6,130.4 C99.9,131.3 99.1,132.1 98.3,132.9 C97.5,133.7 96.6,134.4 95.7,135.1 C94.8,135.8 93.9,136.5 92.9,137.1 C92.0,137.8 91.0,138.4 90.0,138.9 C89.0,139.5 88.0,140.0 86.9,140.4 C85.9,140.9 84.8,141.3 83.7,141.7 C82.6,142.1 81.5,142.4 80.4,142.7 C79.2,143.0 78.1,143.2 76.9,143.4 C75.8,143.6 74.6,143.8 73.5,143.9 C72.3,144.0 71.2,144.0 70.0,144.0 C68.8,144.0 67.7,144.0 66.5,143.9 C65.4,143.8 64.2,143.6 63.1,143.4 C61.9,143.2 60.8,143.0 59.6,142.7 C58.5,142.4 57.4,142.1 56.3,141.7 C55.2,141.3 54.1,140.9 53.1,140.4 C52.0,140.0 51.0,139.5 50.0,138.9 C49.0,138.4 48.0,137.8 47.1,137.1 C46.1,136.5 45.2,135.8 44.3,135.1 C43.4,134.4 42.5,133.7 41.7,132.9 C40.9,132.1 40.1,131.3 39.4,130.4 C38.6,129.6 37.9,128.7 37.2,127.8 C36.6,126.9 35.9,126.0 35.4,125.0 C34.8,124.0 34.2,123.1 33.7,122.1 C33.3,121.1 32.8,120.0 32.4,119.0 C32.0,118.0 31.7,116.9 31.4,115.8 C31.1,114.8 30.8,113.7 30.6,112.6 C30.4,111.5 30.3,110.4 30.2,109.3 C30.1,108.2 30.0,107.1 30.0,106.0 Z" fill="#F2A03D"/>
  <g clip-path="url(#k1136_3)"><path d="M90.6,67.0 C90.7,64.3 90.8,64.8 91.1,63.9 C91.4,63.1 91.9,62.3 92.5,61.7 C93.1,61.2 93.8,60.7 94.7,60.4 C95.6,60.1 95.1,60.1 97.8,60.0 C100.5,59.9 108.3,59.9 111.0,60.0 C113.7,60.1 113.2,60.1 114.1,60.4 C114.9,60.7 115.7,61.2 116.2,61.8 C116.8,62.3 117.3,63.1 117.6,63.9 C117.9,64.8 117.9,64.3 118.0,67.0 C118.1,69.7 118.0,75.9 118.0,80.3 C118.0,84.8 118.0,89.2 118.0,93.7 C118.0,98.1 118.0,102.6 118.0,107.0 C118.0,111.4 118.0,115.9 118.0,120.3 C118.0,124.8 118.0,129.2 118.0,133.7 C118.0,138.1 118.1,144.3 118.0,147.0 C117.9,149.7 117.9,149.2 117.6,150.1 C117.3,150.9 116.8,151.7 116.2,152.2 C115.7,152.8 114.9,153.3 114.1,153.6 C113.2,153.9 114.2,153.9 111.0,154.0 C107.8,154.1 98.0,154.1 94.8,154.0 C91.6,153.9 92.6,153.9 91.8,153.6 C90.9,153.3 90.2,152.8 89.6,152.3 C89.0,151.7 88.6,150.9 88.4,150.1 C88.1,149.2 88.0,149.7 88.0,147.0 C88.0,144.3 88.3,138.1 88.4,133.7 C88.6,129.2 88.7,124.8 88.9,120.3 C89.0,115.9 89.2,111.4 89.3,107.0 C89.4,102.6 89.6,98.1 89.7,93.7 C89.9,89.2 90.0,84.8 90.2,80.3 C90.3,75.9 90.4,69.7 90.6,67.0 Z" fill="#CB6C26"/><path d="M36.4,80.1 C36.4,77.5 36.5,78.7 36.7,78.1 C36.9,77.6 37.1,77.1 37.5,76.7 C37.9,76.3 38.4,76.1 38.9,75.9 C39.5,75.7 40.2,75.6 40.9,75.6 C41.6,75.6 42.4,75.6 43.1,75.6 C43.8,75.6 44.5,75.7 45.1,75.9 C45.6,76.1 46.1,76.3 46.5,76.7 C46.9,77.1 47.1,77.6 47.3,78.1 C47.5,78.7 47.6,77.5 47.6,80.1 C47.6,82.6 47.6,89.0 47.6,93.4 C47.6,97.9 47.6,102.3 47.6,106.8 C47.6,111.3 47.6,115.7 47.6,120.2 C47.6,124.6 47.6,131.0 47.6,133.5 C47.6,136.1 47.5,134.9 47.3,135.5 C47.1,136.0 46.9,136.5 46.5,136.9 C46.1,137.3 45.6,137.5 45.1,137.7 C44.5,137.9 43.8,138.0 43.1,138.0 C42.4,138.0 41.6,138.0 40.9,138.0 C40.2,138.0 39.5,137.9 38.9,137.7 C38.4,137.5 37.9,137.3 37.5,136.9 C37.1,136.5 36.9,136.0 36.7,135.5 C36.5,134.9 36.4,136.1 36.4,133.5 C36.4,131.0 36.4,124.6 36.4,120.2 C36.4,115.7 36.4,111.3 36.4,106.8 C36.4,102.3 36.4,97.9 36.4,93.4 C36.4,89.0 36.4,82.6 36.4,80.1 Z" fill="#FFDAA0"/></g>
  <path d="M30.0,106.0 C30.0,104.9 30.1,103.8 30.2,102.7 C30.3,101.6 30.4,100.5 30.6,99.4 C30.8,98.3 31.1,97.2 31.4,96.2 C31.7,95.1 32.0,94.0 32.4,93.0 C32.8,92.0 33.3,90.9 33.7,89.9 C34.2,88.9 34.8,88.0 35.4,87.0 C35.9,86.0 36.6,85.1 37.2,84.2 C37.9,83.3 38.6,82.4 39.4,81.6 C40.1,80.7 40.9,79.9 41.7,79.1 C42.5,78.3 43.4,77.6 44.3,76.9 C45.2,76.2 46.1,75.5 47.1,74.9 C48.0,74.2 49.0,73.6 50.0,73.1 C51.0,72.5 52.0,72.0 53.1,71.6 C54.1,71.1 55.2,70.7 56.3,70.3 C57.4,69.9 58.5,69.6 59.6,69.3 C60.8,69.0 61.9,68.8 63.1,68.6 C64.2,68.4 65.4,68.2 66.5,68.1 C67.7,68.0 68.8,68.0 70.0,68.0 C71.2,68.0 72.3,68.0 73.5,68.1 C74.6,68.2 76.0,67.7 76.9,68.6 C77.9,69.5 78.5,72.0 79.2,73.5 C79.8,75.0 80.3,76.5 80.9,77.6 C81.5,78.7 82.0,79.5 82.7,80.1 C83.5,80.6 84.2,80.8 85.3,80.9 C86.3,80.9 87.5,80.6 89.0,80.2 C90.4,79.9 92.6,78.9 93.9,78.9 C95.2,79.0 96.6,79.3 96.9,80.4 C97.3,81.5 96.2,83.9 95.9,85.3 C95.6,86.8 95.3,88.1 95.3,89.2 C95.3,90.2 95.5,91.0 96.0,91.7 C96.5,92.5 97.3,92.9 98.4,93.4 C99.5,93.9 101.0,94.3 102.5,94.8 C104.1,95.3 106.6,95.6 107.7,96.4 C108.9,97.2 109.0,98.4 109.4,99.4 C109.7,100.4 109.7,101.6 109.8,102.7 C109.9,103.8 110.0,104.9 110.0,106.0 C110.0,107.1 109.9,108.2 109.8,109.3 C109.7,110.4 109.6,111.5 109.4,112.6 C109.2,113.7 108.9,114.8 108.6,115.8 C108.3,116.9 108.0,118.0 107.6,119.0 C107.2,120.0 106.7,121.1 106.3,122.1 C105.8,123.1 105.2,124.0 104.6,125.0 C104.1,126.0 103.4,126.9 102.8,127.8 C102.1,128.7 101.4,129.6 100.6,130.4 C99.9,131.3 99.1,132.1 98.3,132.9 C97.5,133.7 96.6,134.4 95.7,135.1 C94.8,135.8 93.9,136.5 92.9,137.1 C92.0,137.8 91.0,138.4 90.0,138.9 C89.0,139.5 88.0,140.0 86.9,140.4 C85.9,140.9 84.8,141.3 83.7,141.7 C82.6,142.1 81.5,142.4 80.4,142.7 C79.2,143.0 78.1,143.2 76.9,143.4 C75.8,143.6 74.6,143.8 73.5,143.9 C72.3,144.0 71.2,144.0 70.0,144.0 C68.8,144.0 67.7,144.0 66.5,143.9 C65.4,143.8 64.2,143.6 63.1,143.4 C61.9,143.2 60.8,143.0 59.6,142.7 C58.5,142.4 57.4,142.1 56.3,141.7 C55.2,141.3 54.1,140.9 53.1,140.4 C52.0,140.0 51.0,139.5 50.0,138.9 C49.0,138.4 48.0,137.8 47.1,137.1 C46.1,136.5 45.2,135.8 44.3,135.1 C43.4,134.4 42.5,133.7 41.7,132.9 C40.9,132.1 40.1,131.3 39.4,130.4 C38.6,129.6 37.9,128.7 37.2,127.8 C36.6,126.9 35.9,126.0 35.4,125.0 C34.8,124.0 34.2,123.1 33.7,122.1 C33.3,121.1 32.8,120.0 32.4,119.0 C32.0,118.0 31.7,116.9 31.4,115.8 C31.1,114.8 30.8,113.7 30.6,112.6 C30.4,111.5 30.3,110.4 30.2,109.3 C30.1,108.2 30.0,107.1 30.0,106.0 Z" fill="none" stroke="#2A1B4A" stroke-width="3.0" stroke-linecap="round" stroke-linejoin="round"/>
  <path d="M46.3,124.0 C45.9,123.7 45.4,123.2 45.1,122.7 C44.8,122.2 44.6,121.6 44.6,121.0 C44.6,120.4 44.6,119.8 44.9,119.2 C45.1,118.7 45.4,118.2 45.9,117.8 C46.3,117.4 46.9,117.0 47.4,116.9 C48.0,116.7 48.6,116.7 49.2,116.7 C49.8,116.8 50.4,117.1 50.8,117.4 C51.3,117.7 51.8,118.2 52.0,118.7 C52.3,119.2 52.5,119.8 52.6,120.4 C52.6,121.0 52.5,121.6 52.3,122.2 C52.1,122.7 51.7,123.2 51.3,123.6 C50.9,124.0 50.3,124.4 49.8,124.5 C49.2,124.7 48.6,124.7 48.0,124.7 C47.4,124.6 46.8,124.3 46.3,124.0 Z" fill="#6B3A1E"/>
  <path d="M73.5,104.0 C73.1,104.4 72.6,104.8 72.0,105.0 C71.5,105.2 70.8,105.3 70.3,105.2 C69.7,105.2 69.1,104.9 68.6,104.6 C68.1,104.3 67.6,103.9 67.3,103.4 C67.0,102.9 66.8,102.3 66.7,101.7 C66.6,101.2 66.7,100.5 66.9,100.0 C67.0,99.4 67.4,98.9 67.8,98.4 C68.2,98.0 68.7,97.7 69.3,97.5 C69.8,97.3 70.5,97.2 71.0,97.2 C71.6,97.3 72.2,97.5 72.7,97.8 C73.2,98.1 73.7,98.6 74.0,99.1 C74.3,99.5 74.5,100.1 74.6,100.7 C74.7,101.3 74.6,101.9 74.4,102.5 C74.3,103.0 73.9,103.6 73.5,104.0 Z" fill="#6B3A1E"/>
  <path d="M75.4,112.3 C75.5,112.9 75.3,113.5 75.1,114.0 C74.9,114.6 74.5,115.1 74.1,115.5 C73.6,115.9 73.1,116.2 72.5,116.3 C71.9,116.5 71.3,116.5 70.7,116.4 C70.2,116.3 69.6,116.0 69.1,115.7 C68.6,115.3 68.2,114.9 67.9,114.3 C67.6,113.8 67.5,113.2 67.4,112.6 C67.4,112.0 67.5,111.4 67.8,110.9 C68.0,110.3 68.4,109.8 68.8,109.4 C69.3,109.1 69.8,108.7 70.4,108.6 C70.9,108.4 71.6,108.4 72.2,108.5 C72.7,108.6 73.3,108.9 73.8,109.2 C74.3,109.6 74.7,110.1 75.0,110.6 C75.2,111.1 75.4,111.7 75.4,112.3 Z" fill="#6B3A1E"/>
  <path d="M74.1,108.0 C74.0,108.6 73.7,109.2 73.3,109.7 C73.0,110.1 72.5,110.5 72.0,110.8 C71.4,111.1 70.8,111.2 70.2,111.2 C69.6,111.2 69.0,111.1 68.5,110.9 C68.0,110.6 67.4,110.2 67.1,109.8 C66.7,109.3 66.4,108.7 66.3,108.2 C66.1,107.6 66.1,107.0 66.2,106.4 C66.4,105.8 66.6,105.2 67.0,104.8 C67.3,104.3 67.8,103.9 68.4,103.6 C68.9,103.4 69.5,103.2 70.1,103.2 C70.7,103.2 71.3,103.3 71.8,103.6 C72.4,103.8 72.9,104.2 73.2,104.7 C73.6,105.1 73.9,105.7 74.0,106.3 C74.2,106.8 74.2,107.5 74.1,108.0 Z" fill="#6B3A1E"/>
  <path d="M74.4,104.2 C74.0,103.8 73.7,103.3 73.5,102.8 C73.2,102.2 73.2,101.6 73.2,101.0 C73.2,100.4 73.4,99.8 73.7,99.3 C74.0,98.8 74.5,98.3 75.0,98.0 C75.4,97.7 76.0,97.4 76.6,97.4 C77.2,97.3 77.8,97.3 78.4,97.5 C78.9,97.7 79.5,98.0 79.9,98.4 C80.3,98.8 80.7,99.3 80.9,99.9 C81.1,100.4 81.2,101.1 81.2,101.6 C81.1,102.2 80.9,102.8 80.6,103.3 C80.3,103.8 79.9,104.3 79.4,104.6 C78.9,105.0 78.3,105.2 77.8,105.3 C77.2,105.4 76.5,105.3 76.0,105.1 C75.4,105.0 74.9,104.6 74.4,104.2 Z" fill="#6B3A1E"/>
  <path d="M60.8,115.5 C61.0,114.9 61.4,114.4 61.9,114.0 C62.3,113.6 62.8,113.3 63.4,113.1 C64.0,113.0 64.6,112.9 65.2,113.0 C65.8,113.1 66.4,113.4 66.8,113.7 C67.3,114.0 67.7,114.5 68.0,115.0 C68.3,115.5 68.5,116.1 68.5,116.7 C68.6,117.3 68.5,117.9 68.2,118.5 C68.0,119.0 67.7,119.5 67.2,119.9 C66.8,120.3 66.2,120.6 65.7,120.8 C65.1,121.0 64.5,121.0 63.9,120.9 C63.3,120.8 62.7,120.6 62.2,120.2 C61.8,119.9 61.3,119.4 61.0,118.9 C60.8,118.4 60.6,117.8 60.5,117.2 C60.5,116.6 60.6,116.0 60.8,115.5 Z" fill="#6B3A1E"/>
  <path d="M86.9,109.9 C86.6,110.3 86.1,110.8 85.6,111.0 C85.1,111.3 84.4,111.5 83.8,111.5 C83.3,111.5 82.6,111.4 82.1,111.1 C81.6,110.9 81.0,110.5 80.7,110.1 C80.3,109.6 80.0,109.0 79.8,108.5 C79.7,107.9 79.7,107.3 79.8,106.7 C79.9,106.1 80.2,105.5 80.5,105.1 C80.9,104.6 81.4,104.2 81.9,103.9 C82.4,103.7 83.0,103.5 83.6,103.5 C84.2,103.5 84.8,103.6 85.3,103.8 C85.9,104.1 86.4,104.4 86.8,104.9 C87.1,105.3 87.4,105.9 87.6,106.5 C87.7,107.0 87.8,107.7 87.6,108.2 C87.5,108.8 87.3,109.4 86.9,109.9 Z" fill="#6B3A1E"/>
  <path d="M22.0,161.0 C22.1,158.5 22.1,158.8 22.4,157.9 C22.7,157.1 23.2,156.3 23.8,155.8 C24.3,155.2 25.1,154.7 25.9,154.4 C26.8,154.1 26.2,154.1 29.0,154.0 C31.8,153.9 38.1,154.0 42.7,154.0 C47.2,154.0 51.8,154.0 56.3,154.0 C60.9,154.0 65.4,154.0 70.0,154.0 C74.6,154.0 79.1,154.0 83.7,154.0 C88.2,154.0 92.8,154.0 97.3,154.0 C101.9,154.0 108.2,153.9 111.0,154.0 C113.8,154.1 113.2,154.1 114.1,154.4 C114.9,154.7 115.7,155.2 116.2,155.8 C116.8,156.3 117.3,157.1 117.6,157.9 C117.9,158.8 117.9,158.5 118.0,161.0 C118.1,163.5 118.1,170.5 118.0,173.0 C117.9,175.5 117.9,175.2 117.6,176.1 C117.3,176.9 116.8,177.7 116.2,178.2 C115.7,178.8 114.9,179.3 114.1,179.6 C113.2,179.9 113.8,179.9 111.0,180.0 C108.2,180.1 101.9,180.0 97.3,180.0 C92.8,180.0 88.2,180.0 83.7,180.0 C79.1,180.0 74.6,180.0 70.0,180.0 C65.4,180.0 60.9,180.0 56.3,180.0 C51.8,180.0 47.2,180.0 42.7,180.0 C38.1,180.0 31.8,180.1 29.0,180.0 C26.2,179.9 26.8,179.9 25.9,179.6 C25.1,179.3 24.3,178.8 23.8,178.2 C23.2,177.7 22.7,176.9 22.4,176.1 C22.1,175.2 22.1,175.5 22.0,173.0 C21.9,170.5 21.9,163.5 22.0,161.0 Z" fill="#FFFDF2"/>
  <path d="M22.0,161.0 C22.1,158.5 22.1,158.8 22.4,157.9 C22.7,157.1 23.2,156.3 23.8,155.8 C24.3,155.2 25.1,154.7 25.9,154.4 C26.8,154.1 26.2,154.1 29.0,154.0 C31.8,153.9 38.1,154.0 42.7,154.0 C47.2,154.0 51.8,154.0 56.3,154.0 C60.9,154.0 65.4,154.0 70.0,154.0 C74.6,154.0 79.1,154.0 83.7,154.0 C88.2,154.0 92.8,154.0 97.3,154.0 C101.9,154.0 108.2,153.9 111.0,154.0 C113.8,154.1 113.2,154.1 114.1,154.4 C114.9,154.7 115.7,155.2 116.2,155.8 C116.8,156.3 117.3,157.1 117.6,157.9 C117.9,158.8 117.9,158.5 118.0,161.0 C118.1,163.5 118.1,170.5 118.0,173.0 C117.9,175.5 117.9,175.2 117.6,176.1 C117.3,176.9 116.8,177.7 116.2,178.2 C115.7,178.8 114.9,179.3 114.1,179.6 C113.2,179.9 113.8,179.9 111.0,180.0 C108.2,180.1 101.9,180.0 97.3,180.0 C92.8,180.0 88.2,180.0 83.7,180.0 C79.1,180.0 74.6,180.0 70.0,180.0 C65.4,180.0 60.9,180.0 56.3,180.0 C51.8,180.0 47.2,180.0 42.7,180.0 C38.1,180.0 31.8,180.1 29.0,180.0 C26.2,179.9 26.8,179.9 25.9,179.6 C25.1,179.3 24.3,178.8 23.8,178.2 C23.2,177.7 22.7,176.9 22.4,176.1 C22.1,175.2 22.1,175.5 22.0,173.0 C21.9,170.5 21.9,163.5 22.0,161.0 Z" fill="none" stroke="#2A1B4A" stroke-width="1.8" stroke-linecap="round" stroke-linejoin="round"/>
</svg>