<svg xmlns="http://www.w3.org/2000/svg" viewBox="-6 -6 154 205" width="154" height="205"><defs><clipPath id="k1816_1"><path d="M14.0,11.0 C14.1,8.2 14.1,8.8 14.4,7.9 C14.7,7.1 15.2,6.3 15.8,5.8 C16.3,5.2 17.1,4.7 17.9,4.4 C18.8,4.1 18.2,4.1 21.0,4.0 C23.8,3.9 30.0,4.0 34.5,4.0 C39.0,4.0 43.5,4.0 48.0,4.0 C52.5,4.0 57.0,4.0 61.5,4.0 C66.0,4.0 70.5,4.0 75.0,4.0 C79.5,4.0 84.0,4.0 88.5,4.0 C93.0,4.0 97.5,4.0 102.0,4.0 C106.5,4.0 111.0,4.0 115.5,4.0 C120.0,4.0 126.2,3.9 129.0,4.0 C131.8,4.1 131.2,4.1 132.1,4.4 C132.9,4.7 133.7,5.2 134.2,5.8 C134.8,6.3 135.3,7.1 135.6,7.9 C135.9,8.8 135.9,8.2 136.0,11.0 C136.1,13.8 136.1,22.2 136.0,25.0 C135.9,27.8 135.9,27.2 135.6,28.1 C135.3,28.9 134.8,29.7 134.2,30.2 C133.7,30.8 132.9,31.3 132.1,31.6 C131.2,31.9 131.8,31.9 129.0,32.0 C126.2,32.1 120.0,32.0 115.5,32.0 C111.0,32.0 106.5,32.0 102.0,32.0 C97.5,32.0 93.0,32.0 88.5,32.0 C84.0,32.0 79.5,32.0 75.0,32.0 C70.5,32.0 66.0,32.0 61.5,32.0 C57.0,32.0 52.5,32.0 48.0,32.0 C43.5,32.0 39.0,32.0 34.5,32.0 C30.0,32.0 23.8,32.1 21.0,32.0 C18.2,31.9 18.8,31.9 17.9,31.6 C17.1,31.3 16.3,30.8 15.8,30.2 C15.2,29.7 14.7,28.9 14.4,28.1 C14.1,27.2 14.1,27.8 14.0,25.0 C13.9,22.2 13.9,13.8 14.0,11.0 Z"/></clipPath><clipPath id="k1816_2"><path d="M13.7,37.0 C13.9,34.2 14.0,34.8 14.3,33.9 C14.6,33.1 15.1,32.3 15.7,31.7 C16.3,31.2 17.0,30.7 17.9,30.4 C18.8,30.1 18.2,30.1 21.0,30.0 C23.8,29.9 30.0,30.0 34.5,30.0 C39.0,30.0 43.5,30.0 48.0,30.0 C52.5,30.0 57.0,30.0 61.5,30.0 C66.0,30.0 70.5,30.0 75.0,30.0 C79.5,30.0 84.0,30.0 88.5,30.0 C93.0,30.0 97.5,30.0 102.0,30.0 C106.5,30.0 111.0,30.0 115.5,30.0 C120.0,30.0 126.2,29.9 129.0,30.0 C131.8,30.1 131.2,30.1 132.1,30.4 C133.0,30.7 133.7,31.2 134.3,31.7 C134.9,32.3 135.4,33.1 135.7,33.9 C136.0,34.8 136.1,34.2 136.3,37.0 C136.4,39.7 136.6,46.0 136.8,50.5 C136.9,54.9 137.1,59.4 137.3,63.9 C137.4,68.4 137.6,72.9 137.8,77.4 C137.9,81.8 138.1,86.3 138.3,90.8 C138.4,95.3 138.6,99.8 138.8,104.3 C138.9,108.8 139.1,113.2 139.2,117.7 C139.4,122.2 139.6,126.7 139.7,131.2 C139.9,135.7 140.1,140.2 140.2,144.6 C140.4,149.1 140.6,153.6 140.7,158.1 C140.9,162.6 141.1,167.1 141.2,171.5 C141.4,176.0 141.7,182.3 141.7,185.0 C141.8,187.8 141.7,187.2 141.4,188.1 C141.2,188.9 140.7,189.7 140.2,190.3 C139.6,190.8 138.9,191.3 138.0,191.6 C137.2,191.9 137.7,191.9 135.0,192.0 C132.3,192.1 126.1,192.0 121.7,192.0 C117.2,192.0 112.8,192.0 108.3,192.0 C103.9,192.0 99.4,192.0 95.0,192.0 C90.6,192.0 86.1,192.0 81.7,192.0 C77.2,192.0 72.8,192.0 68.3,192.0 C63.9,192.0 59.4,192.0 55.0,192.0 C50.6,192.0 46.1,192.0 41.7,192.0 C37.2,192.0 32.8,192.0 28.3,192.0 C23.9,192.0 17.7,192.1 15.0,192.0 C12.3,191.9 12.8,191.9 12.0,191.6 C11.1,191.3 10.4,190.8 9.8,190.3 C9.3,189.7 8.8,188.9 8.6,188.1 C8.3,187.2 8.2,187.8 8.3,185.0 C8.3,182.3 8.6,176.0 8.8,171.5 C8.9,167.1 9.1,162.6 9.3,158.1 C9.4,153.6 9.6,149.1 9.8,144.6 C9.9,140.2 10.1,135.7 10.3,131.2 C10.4,126.7 10.6,122.2 10.8,117.7 C10.9,113.2 11.1,108.8 11.2,104.3 C11.4,99.8 11.6,95.3 11.7,90.8 C11.9,86.3 12.1,81.8 12.2,77.4 C12.4,72.9 12.6,68.4 12.7,63.9 C12.9,59.4 13.1,54.9 13.2,50.5 C13.4,46.0 13.6,39.7 13.7,37.0 Z"/></clipPath><clipPath id="k1816_3"><path d="M55.7,129.7 C54.2,130.0 52.4,130.1 50.8,129.8 C49.2,129.5 47.6,128.8 46.3,128.0 C45.1,127.1 43.9,125.8 43.2,124.5 C42.5,123.3 42.0,121.7 42.0,120.2 C42.0,118.8 42.3,117.2 43.0,115.9 C43.6,114.6 44.7,113.3 45.9,112.3 C47.2,111.4 48.8,110.7 50.3,110.3 C51.8,110.0 53.6,109.9 55.2,110.2 C56.8,110.5 58.4,111.2 59.7,112.0 C60.9,112.9 62.1,114.2 62.8,115.5 C63.5,116.7 64.0,118.3 64.0,119.8 C64.0,121.2 63.7,122.8 63.0,124.1 C62.4,125.4 61.3,126.7 60.1,127.7 C58.8,128.6 57.2,129.3 55.7,129.7 Z"/></clipPath><clipPath id="k1816_4"><path d="M66.2,126.3 C64.4,126.6 62.3,126.5 60.6,126.1 C58.8,125.6 57.0,124.7 55.6,123.6 C54.3,122.5 53.1,121.0 52.3,119.5 C51.6,117.9 51.3,116.1 51.4,114.4 C51.5,112.8 52.0,111.0 52.9,109.5 C53.8,108.0 55.1,106.6 56.6,105.7 C58.1,104.7 60.0,104.0 61.8,103.7 C63.6,103.4 65.7,103.5 67.4,103.9 C69.2,104.4 71.0,105.3 72.4,106.4 C73.7,107.5 74.9,109.0 75.7,110.5 C76.4,112.1 76.7,113.9 76.6,115.6 C76.5,117.2 76.0,119.0 75.1,120.5 C74.2,122.0 72.9,123.4 71.4,124.3 C69.9,125.3 68.0,126.0 66.2,126.3 Z"/></clipPath><clipPath id="k1816_5"><path d="M60.9,112.4 C60.6,110.6 60.7,108.5 61.2,106.6 C61.7,104.8 62.8,102.9 64.2,101.5 C65.5,100.1 67.4,98.8 69.3,98.1 C71.2,97.3 73.5,96.9 75.5,97.0 C77.6,97.1 79.9,97.6 81.7,98.5 C83.5,99.4 85.3,100.8 86.5,102.3 C87.7,103.8 88.7,105.7 89.1,107.6 C89.4,109.4 89.3,111.5 88.8,113.4 C88.3,115.2 87.2,117.1 85.8,118.5 C84.5,119.9 82.6,121.2 80.7,121.9 C78.8,122.7 76.5,123.1 74.5,123.0 C72.4,122.9 70.1,122.4 68.3,121.5 C66.5,120.6 64.7,119.2 63.5,117.7 C62.3,116.2 61.3,114.3 60.9,112.4 Z"/></clipPath><clipPath id="k1816_6"><path d="M76.9,123.0 C75.6,121.8 74.6,120.2 74.0,118.6 C73.4,117.0 73.2,115.2 73.5,113.5 C73.7,111.9 74.4,110.1 75.4,108.7 C76.4,107.3 77.9,106.0 79.4,105.2 C81.0,104.3 83.0,103.7 84.8,103.6 C86.6,103.4 88.7,103.6 90.4,104.2 C92.1,104.8 93.8,105.8 95.1,107.0 C96.4,108.2 97.4,109.8 98.0,111.4 C98.6,113.0 98.8,114.8 98.5,116.5 C98.3,118.1 97.6,119.9 96.6,121.3 C95.6,122.7 94.1,124.0 92.6,124.8 C91.0,125.7 89.0,126.3 87.2,126.4 C85.4,126.6 83.3,126.4 81.6,125.8 C79.9,125.2 78.2,124.2 76.9,123.0 Z"/></clipPath><clipPath id="k1816_7"><path d="M87.4,115.1 C88.2,113.8 89.4,112.6 90.7,111.8 C92.0,111.0 93.7,110.4 95.3,110.1 C96.8,109.9 98.6,110.0 100.1,110.4 C101.7,110.8 103.2,111.6 104.4,112.6 C105.6,113.6 106.6,114.9 107.2,116.3 C107.8,117.6 108.1,119.2 108.0,120.7 C107.9,122.1 107.4,123.7 106.6,124.9 C105.8,126.2 104.6,127.4 103.3,128.2 C102.0,129.0 100.3,129.6 98.7,129.9 C97.2,130.1 95.4,130.0 93.9,129.6 C92.3,129.2 90.8,128.4 89.6,127.4 C88.4,126.4 87.4,125.1 86.8,123.7 C86.2,122.4 85.9,120.8 86.0,119.3 C86.1,117.9 86.6,116.3 87.4,115.1 Z"/></clipPath></defs>
  <path d="M14.0,11.0 C14.1,8.2 14.1,8.8 14.4,7.9 C14.7,7.1 15.2,6.3 15.8,5.8 C16.3,5.2 17.1,4.7 17.9,4.4 C18.8,4.1 18.2,4.1 21.0,4.0 C23.8,3.9 30.0,4.0 34.5,4.0 C39.0,4.0 43.5,4.0 48.0,4.0 C52.5,4.0 57.0,4.0 61.5,4.0 C66.0,4.0 70.5,4.0 75.0,4.0 C79.5,4.0 84.0,4.0 88.5,4.0 C93.0,4.0 97.5,4.0 102.0,4.0 C106.5,4.0 111.0,4.0 115.5,4.0 C120.0,4.0 126.2,3.9 129.0,4.0 C131.8,4.1 131.2,4.1 132.1,4.4 C132.9,4.7 133.7,5.2 134.2,5.8 C134.8,6.3 135.3,7.1 135.6,7.9 C135.9,8.8 135.9,8.2 136.0,11.0 C136.1,13.8 136.1,22.2 136.0,25.0 C135.9,27.8 135.9,27.2 135.6,28.1 C135.3,28.9 134.8,29.7 134.2,30.2 C133.7,30.8 132.9,31.3 132.1,31.6 C131.2,31.9 131.8,31.9 129.0,32.0 C126.2,32.1 120.0,32.0 115.5,32.0 C111.0,32.0 106.5,32.0 102.0,32.0 C97.5,32.0 93.0,32.0 88.5,32.0 C84.0,32.0 79.5,32.0 75.0,32.0 C70.5,32.0 66.0,32.0 61.5,32.0 C57.0,32.0 52.5,32.0 48.0,32.0 C43.5,32.0 39.0,32.0 34.5,32.0 C30.0,32.0 23.8,32.1 21.0,32.0 C18.2,31.9 18.8,31.9 17.9,31.6 C17.1,31.3 16.3,30.8 15.8,30.2 C15.2,29.7 14.7,28.9 14.4,28.1 C14.1,27.2 14.1,27.8 14.0,25.0 C13.9,22.2 13.9,13.8 14.0,11.0 Z" fill="#E0A35A"/>
  <g clip-path="url(#k1816_1)"><path d="M103.8,5.0 C104.1,2.1 104.1,2.8 104.4,1.9 C104.8,1.1 105.3,0.3 105.9,-0.3 C106.5,-0.8 107.3,-1.3 108.2,-1.6 C109.1,-1.9 106.5,-1.9 111.3,-2.0 C116.1,-2.1 132.2,-2.1 137.0,-2.0 C141.8,-1.9 139.2,-1.9 140.1,-1.6 C140.9,-1.3 141.7,-0.8 142.2,-0.2 C142.8,0.3 143.3,1.1 143.6,1.9 C143.9,2.8 143.9,2.2 144.0,5.0 C144.1,7.8 144.0,14.3 144.0,19.0 C144.0,23.7 144.1,30.2 144.0,33.0 C143.9,35.8 143.9,35.2 143.6,36.1 C143.3,36.9 142.8,37.7 142.2,38.2 C141.7,38.8 140.9,39.3 140.1,39.6 C139.2,39.9 139.9,39.9 137.0,40.0 C134.1,40.1 127.4,40.0 122.6,40.0 C117.9,40.0 111.2,40.1 108.3,40.0 C105.4,39.9 106.1,39.9 105.2,39.6 C104.4,39.3 103.7,38.8 103.2,38.3 C102.6,37.7 102.2,36.9 102.0,36.1 C101.8,35.2 101.6,35.9 101.8,33.0 C101.9,30.2 102.4,23.7 102.8,19.0 C103.1,14.3 103.5,7.8 103.8,5.0 Z" fill="#BC7540"/><path d="M23.8,13.2 C23.8,11.1 23.9,11.4 24.1,10.7 C24.4,9.9 24.7,9.3 25.2,8.8 C25.7,8.3 26.3,8.0 27.1,7.7 C27.8,7.5 28.7,7.4 29.6,7.4 C30.5,7.3 31.6,7.3 32.5,7.4 C33.5,7.4 34.4,7.5 35.1,7.7 C35.8,8.0 36.4,8.3 36.9,8.8 C37.4,9.3 37.8,9.9 38.0,10.7 C38.3,11.4 38.3,11.1 38.4,13.2 C38.5,15.3 38.5,21.2 38.4,23.3 C38.3,25.5 38.3,25.2 38.0,25.9 C37.8,26.6 37.4,27.2 36.9,27.7 C36.4,28.2 35.8,28.6 35.1,28.8 C34.4,29.1 33.5,29.1 32.5,29.2 C31.6,29.3 30.5,29.3 29.6,29.2 C28.7,29.1 27.8,29.1 27.1,28.8 C26.3,28.6 25.7,28.2 25.2,27.7 C24.7,27.2 24.4,26.6 24.1,25.9 C23.9,25.2 23.8,25.5 23.8,23.3 C23.7,21.2 23.7,15.3 23.8,13.2 Z" fill="#FFE1B3"/></g>
  <path d="M14.0,11.0 C14.1,8.2 14.1,8.8 14.4,7.9 C14.7,7.1 15.2,6.3 15.8,5.8 C16.3,5.2 17.1,4.7 17.9,4.4 C18.8,4.1 18.2,4.1 21.0,4.0 C23.8,3.9 30.0,4.0 34.5,4.0 C39.0,4.0 43.5,4.0 48.0,4.0 C52.5,4.0 57.0,4.0 61.5,4.0 C66.0,4.0 70.5,4.0 75.0,4.0 C79.5,4.0 84.0,4.0 88.5,4.0 C93.0,4.0 97.5,4.0 102.0,4.0 C106.5,4.0 111.0,4.0 115.5,4.0 C120.0,4.0 126.2,3.9 129.0,4.0 C131.8,4.1 131.2,4.1 132.1,4.4 C132.9,4.7 133.7,5.2 134.2,5.8 C134.8,6.3 135.3,7.1 135.6,7.9 C135.9,8.8 135.9,8.2 136.0,11.0 C136.1,13.8 136.1,22.2 136.0,25.0 C135.9,27.8 135.9,27.2 135.6,28.1 C135.3,28.9 134.8,29.7 134.2,30.2 C133.7,30.8 132.9,31.3 132.1,31.6 C131.2,31.9 131.8,31.9 129.0,32.0 C126.2,32.1 120.0,32.0 115.5,32.0 C111.0,32.0 106.5,32.0 102.0,32.0 C97.5,32.0 93.0,32.0 88.5,32.0 C84.0,32.0 79.5,32.0 75.0,32.0 C70.5,32.0 66.0,32.0 61.5,32.0 C57.0,32.0 52.5,32.0 48.0,32.0 C43.5,32.0 39.0,32.0 34.5,32.0 C30.0,32.0 23.8,32.1 21.0,32.0 C18.2,31.9 18.8,31.9 17.9,31.6 C17.1,31.3 16.3,30.8 15.8,30.2 C15.2,29.7 14.7,28.9 14.4,28.1 C14.1,27.2 14.1,27.8 14.0,25.0 C13.9,22.2 13.9,13.8 14.0,11.0 Z" fill="none" stroke="#2A1B4A" stroke-width="3.0" stroke-linecap="round" stroke-linejoin="round"/>
  <path d="M18.0,21.0 C19.3,20.0 23.3,15.0 26.0,15.0 C28.7,15.0 31.3,21.0 34.0,21.0 C36.7,21.0 39.3,15.0 42.0,15.0 C44.7,15.0 47.3,21.0 50.0,21.0 C52.7,21.0 55.3,15.0 58.0,15.0 C60.7,15.0 63.3,21.0 66.0,21.0 C68.7,21.0 71.3,15.0 74.0,15.0 C76.7,15.0 79.3,21.0 82.0,21.0 C84.7,21.0 87.3,15.0 90.0,15.0 C92.7,15.0 95.3,21.0 98.0,21.0 C100.7,21.0 103.3,15.0 106.0,15.0 C108.7,15.0 111.3,21.0 114.0,21.0 C116.7,21.0 119.3,15.0 122.0,15.0 C124.7,15.0 128.7,20.0 130.0,21.0" fill="none" stroke="#2A1B4A" stroke-width="1.8" stroke-linecap="round" stroke-linejoin="round"/>
  <path d="M13.7,37.0 C13.9,34.2 14.0,34.8 14.3,33.9 C14.6,33.1 15.1,32.3 15.7,31.7 C16.3,31.2 17.0,30.7 17.9,30.4 C18.8,30.1 18.2,30.1 21.0,30.0 C23.8,29.9 30.0,30.0 34.5,30.0 C39.0,30.0 43.5,30.0 48.0,30.0 C52.5,30.0 57.0,30.0 61.5,30.0 C66.0,30.0 70.5,30.0 75.0,30.0 C79.5,30.0 84.0,30.0 88.5,30.0 C93.0,30.0 97.5,30.0 102.0,30.0 C106.5,30.0 111.0,30.0 115.5,30.0 C120.0,30.0 126.2,29.9 129.0,30.0 C131.8,30.1 131.2,30.1 132.1,30.4 C133.0,30.7 133.7,31.2 134.3,31.7 C134.9,32.3 135.4,33.1 135.7,33.9 C136.0,34.8 136.1,34.2 136.3,37.0 C136.4,39.7 136.6,46.0 136.8,50.5 C136.9,54.9 137.1,59.4 137.3,63.9 C137.4,68.4 137.6,72.9 137.8,77.4 C137.9,81.8 138.1,86.3 138.3,90.8 C138.4,95.3 138.6,99.8 138.8,104.3 C138.9,108.8 139.1,113.2 139.2,117.7 C139.4,122.2 139.6,126.7 139.7,131.2 C139.9,135.7 140.1,140.2 140.2,144.6 C140.4,149.1 140.6,153.6 140.7,158.1 C140.9,162.6 141.1,167.1 141.2,171.5 C141.4,176.0 141.7,182.3 141.7,185.0 C141.8,187.8 141.7,187.2 141.4,188.1 C141.2,188.9 140.7,189.7 140.2,190.3 C139.6,190.8 138.9,191.3 138.0,191.6 C137.2,191.9 137.7,191.9 135.0,192.0 C132.3,192.1 126.1,192.0 121.7,192.0 C117.2,192.0 112.8,192.0 108.3,192.0 C103.9,192.0 99.4,192.0 95.0,192.0 C90.6,192.0 86.1,192.0 81.7,192.0 C77.2,192.0 72.8,192.0 68.3,192.0 C63.9,192.0 59.4,192.0 55.0,192.0 C50.6,192.0 46.1,192.0 41.7,192.0 C37.2,192.0 32.8,192.0 28.3,192.0 C23.9,192.0 17.7,192.1 15.0,192.0 C12.3,191.9 12.8,191.9 12.0,191.6 C11.1,191.3 10.4,190.8 9.8,190.3 C9.3,189.7 8.8,188.9 8.6,188.1 C8.3,187.2 8.2,187.8 8.3,185.0 C8.3,182.3 8.6,176.0 8.8,171.5 C8.9,167.1 9.1,162.6 9.3,158.1 C9.4,153.6 9.6,149.1 9.8,144.6 C9.9,140.2 10.1,135.7 10.3,131.2 C10.4,126.7 10.6,122.2 10.8,117.7 C10.9,113.2 11.1,108.8 11.2,104.3 C11.4,99.8 11.6,95.3 11.7,90.8 C11.9,86.3 12.1,81.8 12.2,77.4 C12.4,72.9 12.6,68.4 12.7,63.9 C12.9,59.4 13.1,54.9 13.2,50.5 C13.4,46.0 13.6,39.7 13.7,37.0 Z" fill="#F4C98A"/>
  <g clip-path="url(#k1816_2)"><path d="M107.0,31.0 C107.2,28.2 107.2,28.8 107.5,27.9 C107.8,27.1 108.3,26.3 108.9,25.7 C109.5,25.2 110.2,24.7 111.1,24.4 C112.0,24.1 111.2,24.1 114.2,24.0 C117.1,23.9 123.8,24.0 128.6,24.0 C133.4,24.0 140.1,23.9 143.0,24.0 C145.9,24.1 145.2,24.1 146.1,24.4 C146.9,24.7 147.7,25.2 148.2,25.8 C148.8,26.3 149.3,27.1 149.6,27.9 C149.9,28.8 149.9,28.2 150.0,31.0 C150.1,33.8 150.0,40.0 150.0,44.5 C150.0,49.0 150.0,53.5 150.0,58.0 C150.0,62.5 150.0,67.0 150.0,71.5 C150.0,76.0 150.0,80.5 150.0,85.0 C150.0,89.5 150.0,94.0 150.0,98.5 C150.0,103.0 150.0,107.5 150.0,112.0 C150.0,116.5 150.0,121.0 150.0,125.5 C150.0,130.0 150.0,134.5 150.0,139.0 C150.0,143.5 150.0,148.0 150.0,152.5 C150.0,157.0 150.0,161.5 150.0,166.0 C150.0,170.5 150.0,175.0 150.0,179.5 C150.0,184.0 150.1,190.2 150.0,193.0 C149.9,195.8 149.9,195.2 149.6,196.1 C149.3,196.9 148.8,197.7 148.2,198.2 C147.7,198.8 146.9,199.3 146.1,199.6 C145.2,199.9 146.2,199.9 143.0,200.0 C139.8,200.1 132.4,200.0 127.1,200.0 C121.8,200.0 114.3,200.1 111.2,200.0 C108.0,199.9 109.0,199.9 108.1,199.6 C107.2,199.3 106.5,198.8 105.9,198.3 C105.4,197.7 104.9,196.9 104.7,196.1 C104.4,195.2 104.3,195.8 104.3,193.0 C104.3,190.2 104.4,184.0 104.5,179.5 C104.6,175.0 104.7,170.5 104.7,166.0 C104.8,161.5 104.9,157.0 105.0,152.5 C105.0,148.0 105.1,143.5 105.2,139.0 C105.3,134.5 105.4,130.0 105.4,125.5 C105.5,121.0 105.6,116.5 105.7,112.0 C105.7,107.5 105.8,103.0 105.9,98.5 C106.0,94.0 106.0,89.5 106.1,85.0 C106.2,80.5 106.3,76.0 106.4,71.5 C106.4,67.0 106.5,62.5 106.6,58.0 C106.7,53.5 106.7,49.0 106.8,44.5 C106.9,40.0 106.9,33.8 107.0,31.0 Z" fill="#CD9969"/><path d="M18.7,55.9 C18.8,53.0 18.9,53.9 19.1,53.1 C19.4,52.3 19.8,51.6 20.3,51.0 C20.9,50.5 21.5,50.1 22.3,49.8 C23.1,49.6 24.1,49.5 25.2,49.4 C26.2,49.4 27.4,49.4 28.4,49.4 C29.4,49.5 30.4,49.6 31.2,49.8 C32.0,50.1 32.7,50.5 33.2,51.0 C33.7,51.6 34.1,52.3 34.4,53.1 C34.7,53.9 34.7,53.0 34.8,55.9 C34.9,58.7 34.8,65.3 34.8,70.1 C34.8,74.8 34.8,79.5 34.8,84.2 C34.8,89.0 34.8,93.7 34.8,98.4 C34.8,103.2 34.8,107.9 34.8,112.6 C34.8,117.3 34.8,122.1 34.8,126.8 C34.8,131.5 34.8,136.3 34.8,141.0 C34.8,145.7 34.8,150.5 34.8,155.2 C34.8,159.9 34.9,166.5 34.8,169.4 C34.7,172.2 34.7,171.4 34.4,172.2 C34.1,173.0 33.7,173.7 33.2,174.2 C32.7,174.7 32.0,175.1 31.2,175.4 C30.4,175.7 29.4,175.7 28.4,175.8 C27.4,175.9 26.2,175.9 25.2,175.8 C24.1,175.7 23.1,175.7 22.3,175.4 C21.5,175.1 20.9,174.7 20.3,174.2 C19.8,173.7 19.4,173.0 19.1,172.2 C18.9,171.4 18.8,172.2 18.7,169.4 C18.7,166.5 18.7,159.9 18.7,155.2 C18.7,150.5 18.7,145.7 18.7,141.0 C18.7,136.3 18.7,131.5 18.7,126.8 C18.7,122.1 18.7,117.3 18.7,112.6 C18.7,107.9 18.7,103.2 18.7,98.4 C18.7,93.7 18.7,89.0 18.7,84.2 C18.7,79.5 18.7,74.8 18.7,70.1 C18.7,65.3 18.7,58.7 18.7,55.9 Z" fill="#FFECC8"/></g>
  <path d="M13.7,37.0 C13.9,34.2 14.0,34.8 14.3,33.9 C14.6,33.1 15.1,32.3 15.7,31.7 C16.3,31.2 17.0,30.7 17.9,30.4 C18.8,30.1 18.2,30.1 21.0,30.0 C23.8,29.9 30.0,30.0 34.5,30.0 C39.0,30.0 43.5,30.0 48.0,30.0 C52.5,30.0 57.0,30.0 61.5,30.0 C66.0,30.0 70.5,30.0 75.0,30.0 C79.5,30.0 84.0,30.0 88.5,30.0 C93.0,30.0 97.5,30.0 102.0,30.0 C106.5,30.0 111.0,30.0 115.5,30.0 C120.0,30.0 126.2,29.9 129.0,30.0 C131.8,30.1 131.2,30.1 132.1,30.4 C133.0,30.7 133.7,31.2 134.3,31.7 C134.9,32.3 135.4,33.1 135.7,33.9 C136.0,34.8 136.1,34.2 136.3,37.0 C136.4,39.7 136.6,46.0 136.8,50.5 C136.9,54.9 137.1,59.4 137.3,63.9 C137.4,68.4 137.6,72.9 137.8,77.4 C137.9,81.8 138.1,86.3 138.3,90.8 C138.4,95.3 138.6,99.8 138.8,104.3 C138.9,108.8 139.1,113.2 139.2,117.7 C139.4,122.2 139.6,126.7 139.7,131.2 C139.9,135.7 140.1,140.2 140.2,144.6 C140.4,149.1 140.6,153.6 140.7,158.1 C140.9,162.6 141.1,167.1 141.2,171.5 C141.4,176.0 141.7,182.3 141.7,185.0 C141.8,187.8 141.7,187.2 141.4,188.1 C141.2,188.9 140.7,189.7 140.2,190.3 C139.6,190.8 138.9,191.3 138.0,191.6 C137.2,191.9 137.7,191.9 135.0,192.0 C132.3,192.1 126.1,192.0 121.7,192.0 C117.2,192.0 112.8,192.0 108.3,192.0 C103.9,192.0 99.4,192.0 95.0,192.0 C90.6,192.0 86.1,192.0 81.7,192.0 C77.2,192.0 72.8,192.0 68.3,192.0 C63.9,192.0 59.4,192.0 55.0,192.0 C50.6,192.0 46.1,192.0 41.7,192.0 C37.2,192.0 32.8,192.0 28.3,192.0 C23.9,192.0 17.7,192.1 15.0,192.0 C12.3,191.9 12.8,191.9 12.0,191.6 C11.1,191.3 10.4,190.8 9.8,190.3 C9.3,189.7 8.8,188.9 8.6,188.1 C8.3,187.2 8.2,187.8 8.3,185.0 C8.3,182.3 8.6,176.0 8.8,171.5 C8.9,167.1 9.1,162.6 9.3,158.1 C9.4,153.6 9.6,149.1 9.8,144.6 C9.9,140.2 10.1,135.7 10.3,131.2 C10.4,126.7 10.6,122.2 10.8,117.7 C10.9,113.2 11.1,108.8 11.2,104.3 C11.4,99.8 11.6,95.3 11.7,90.8 C11.9,86.3 12.1,81.8 12.2,77.4 C12.4,72.9 12.6,68.4 12.7,63.9 C12.9,59.4 13.1,54.9 13.2,50.5 C13.4,46.0 13.6,39.7 13.7,37.0 Z" fill="none" stroke="#2A1B4A" stroke-width="3.0" stroke-linecap="round" stroke-linejoin="round"/>
  <path d="M22,40 q-2,13.72 0,27.44" fill="none" stroke="#FFFFFF" stroke-width="3.2" stroke-linecap="round" opacity=".9"/>
  <path d="M88.1,142.9 C84.5,143.5 80.7,143.9 77.0,144.0 C73.3,144.1 69.5,143.9 65.8,143.5 C62.2,143.0 58.5,142.3 55.1,141.4 C51.7,140.4 48.4,139.2 45.4,137.8 C42.4,136.4 39.6,134.7 37.2,132.9 C34.8,131.1 32.6,129.1 30.8,127.0 C29.1,124.9 27.7,122.6 26.7,120.4 C25.8,118.1 25.2,115.6 25.0,113.3 C24.9,110.9 25.2,108.5 25.9,106.1 C26.5,103.8 27.7,101.4 29.1,99.3 C30.6,97.1 32.5,95.0 34.7,93.1 C36.9,91.1 39.5,89.3 42.3,87.8 C45.1,86.2 48.3,84.9 51.5,83.7 C54.8,82.6 58.4,81.7 61.9,81.1 C65.5,80.5 69.3,80.1 73.0,80.0 C76.7,79.9 80.5,80.1 84.2,80.5 C87.8,81.0 91.5,81.7 94.9,82.6 C98.3,83.6 101.6,84.8 104.6,86.2 C107.6,87.6 110.4,89.3 112.8,91.1 C115.2,92.9 117.4,94.9 119.2,97.0 C120.9,99.1 122.3,101.4 123.3,103.6 C124.2,105.9 124.8,108.4 125.0,110.7 C125.1,113.1 124.8,115.5 124.1,117.9 C123.5,120.2 122.3,122.6 120.9,124.7 C119.4,126.9 117.5,129.0 115.3,130.9 C113.1,132.9 110.5,134.7 107.7,136.2 C104.9,137.8 101.7,139.1 98.5,140.3 C95.2,141.4 91.6,142.3 88.1,142.9 Z" fill="#FFF3DC"/>
  <path d="M88.1,142.9 C84.5,143.5 80.7,143.9 77.0,144.0 C73.3,144.1 69.5,143.9 65.8,143.5 C62.2,143.0 58.5,142.3 55.1,141.4 C51.7,140.4 48.4,139.2 45.4,137.8 C42.4,136.4 39.6,134.7 37.2,132.9 C34.8,131.1 32.6,129.1 30.8,127.0 C29.1,124.9 27.7,122.6 26.7,120.4 C25.8,118.1 25.2,115.6 25.0,113.3 C24.9,110.9 25.2,108.5 25.9,106.1 C26.5,103.8 27.7,101.4 29.1,99.3 C30.6,97.1 32.5,95.0 34.7,93.1 C36.9,91.1 39.5,89.3 42.3,87.8 C45.1,86.2 48.3,84.9 51.5,83.7 C54.8,82.6 58.4,81.7 61.9,81.1 C65.5,80.5 69.3,80.1 73.0,80.0 C76.7,79.9 80.5,80.1 84.2,80.5 C87.8,81.0 91.5,81.7 94.9,82.6 C98.3,83.6 101.6,84.8 104.6,86.2 C107.6,87.6 110.4,89.3 112.8,91.1 C115.2,92.9 117.4,94.9 119.2,97.0 C120.9,99.1 122.3,101.4 123.3,103.6 C124.2,105.9 124.8,108.4 125.0,110.7 C125.1,113.1 124.8,115.5 124.1,117.9 C123.5,120.2 122.3,122.6 120.9,124.7 C119.4,126.9 117.5,129.0 115.3,130.9 C113.1,132.9 110.5,134.7 107.7,136.2 C104.9,137.8 101.7,139.1 98.5,140.3 C95.2,141.4 91.6,142.3 88.1,142.9 Z" fill="none" stroke="#2A1B4A" stroke-width="1.8" stroke-linecap="round" stroke-linejoin="round"/>
  <path d="M55.7,129.7 C54.2,130.0 52.4,130.1 50.8,129.8 C49.2,129.5 47.6,128.8 46.3,128.0 C45.1,127.1 43.9,125.8 43.2,124.5 C42.5,123.3 42.0,121.7 42.0,120.2 C42.0,118.8 42.3,117.2 43.0,115.9 C43.6,114.6 44.7,113.3 45.9,112.3 C47.2,111.4 48.8,110.7 50.3,110.3 C51.8,110.0 53.6,109.9 55.2,110.2 C56.8,110.5 58.4,111.2 59.7,112.0 C60.9,112.9 62.1,114.2 62.8,115.5 C63.5,116.7 64.0,118.3 64.0,119.8 C64.0,121.2 63.7,122.8 63.0,124.1 C62.4,125.4 61.3,126.7 60.1,127.7 C58.8,128.6 57.2,129.3 55.7,129.7 Z" fill="#E89A3C"/>
  <g clip-path="url(#k1816_3)"><path d="M56.9,109.8 C57.3,105.9 57.2,108.0 57.5,107.3 C57.8,106.5 58.2,105.9 58.7,105.5 C59.3,105.0 59.9,104.6 60.7,104.4 C61.4,104.1 62.3,104.1 63.2,104.0 C64.2,103.9 65.2,103.9 66.2,104.0 C67.1,104.1 68.0,104.1 68.7,104.4 C69.4,104.6 70.1,105.0 70.5,105.5 C71.0,105.9 71.4,106.6 71.6,107.3 C71.9,108.0 71.9,105.9 72.0,109.8 C72.1,113.8 72.1,127.0 72.0,131.0 C71.9,135.0 71.9,133.2 71.6,134.1 C71.3,134.9 70.8,135.7 70.2,136.2 C69.7,136.8 68.9,137.3 68.1,137.6 C67.2,137.9 66.1,137.9 65.0,138.0 C63.9,138.1 62.5,138.1 61.4,138.0 C60.3,137.9 59.2,137.9 58.4,137.6 C57.5,137.3 56.8,136.8 56.3,136.3 C55.8,135.7 55.4,134.9 55.2,134.1 C55.0,133.2 54.7,135.1 55.0,131.0 C55.3,127.0 56.5,113.8 56.9,109.8 Z" fill="#C36925"/><path d="M43.8,113.8 C43.8,111.6 43.8,113.4 43.8,113.2 C43.9,113.0 44.0,112.9 44.1,112.8 C44.2,112.6 44.4,112.5 44.6,112.5 C44.7,112.4 44.9,112.4 45.2,112.4 C45.4,112.4 45.7,112.4 45.9,112.4 C46.1,112.4 46.3,112.4 46.5,112.5 C46.7,112.5 46.8,112.6 46.9,112.8 C47.0,112.9 47.1,113.0 47.2,113.2 C47.3,113.4 47.3,111.6 47.3,113.8 C47.3,116.0 47.3,124.4 47.3,126.6 C47.3,128.8 47.3,127.0 47.2,127.2 C47.1,127.4 47.0,127.5 46.9,127.6 C46.8,127.8 46.7,127.9 46.5,127.9 C46.3,128.0 46.1,128.0 45.9,128.0 C45.7,128.0 45.4,128.0 45.2,128.0 C44.9,128.0 44.7,128.0 44.6,127.9 C44.4,127.9 44.2,127.8 44.1,127.6 C44.0,127.5 43.9,127.4 43.8,127.2 C43.8,127.0 43.8,128.8 43.8,126.6 C43.7,124.4 43.7,116.0 43.8,113.8 Z" fill="#FFDAA0"/></g>
  <path d="M55.7,129.7 C54.2,130.0 52.4,130.1 50.8,129.8 C49.2,129.5 47.6,128.8 46.3,128.0 C45.1,127.1 43.9,125.8 43.2,124.5 C42.5,123.3 42.0,121.7 42.0,120.2 C42.0,118.8 42.3,117.2 43.0,115.9 C43.6,114.6 44.7,113.3 45.9,112.3 C47.2,111.4 48.8,110.7 50.3,110.3 C51.8,110.0 53.6,109.9 55.2,110.2 C56.8,110.5 58.4,111.2 59.7,112.0 C60.9,112.9 62.1,114.2 62.8,115.5 C63.5,116.7 64.0,118.3 64.0,119.8 C64.0,121.2 63.7,122.8 63.0,124.1 C62.4,125.4 61.3,126.7 60.1,127.7 C58.8,128.6 57.2,129.3 55.7,129.7 Z" fill="none" stroke="#2A1B4A" stroke-width="1.8" stroke-linecap="round" stroke-linejoin="round"/>
  <path d="M66.2,126.3 C64.4,126.6 62.3,126.5 60.6,126.1 C58.8,125.6 57.0,124.7 55.6,123.6 C54.3,122.5 53.1,121.0 52.3,119.5 C51.6,117.9 51.3,116.1 51.4,114.4 C51.5,112.8 52.0,111.0 52.9,109.5 C53.8,108.0 55.1,106.6 56.6,105.7 C58.1,104.7 60.0,104.0 61.8,103.7 C63.6,103.4 65.7,103.5 67.4,103.9 C69.2,104.4 71.0,105.3 72.4,106.4 C73.7,107.5 74.9,109.0 75.7,110.5 C76.4,112.1 76.7,113.9 76.6,115.6 C76.5,117.2 76.0,119.0 75.1,120.5 C74.2,122.0 72.9,123.4 71.4,124.3 C69.9,125.3 68.0,126.0 66.2,126.3 Z" fill="#E89A3C"/>
  <g clip-path="url(#k1816_4)"><path d="M68.6,103.7 C69.0,99.3 68.8,101.8 69.2,101.0 C69.5,100.2 69.9,99.6 70.5,99.1 C71.1,98.5 71.7,98.1 72.5,97.9 C73.3,97.6 74.3,97.6 75.3,97.5 C76.3,97.4 77.4,97.4 78.4,97.5 C79.4,97.6 80.4,97.6 81.1,97.9 C81.9,98.1 82.6,98.5 83.1,99.1 C83.6,99.6 84.0,100.2 84.3,101.0 C84.5,101.8 84.6,99.3 84.7,103.7 C84.7,108.2 84.7,123.0 84.7,127.5 C84.6,132.0 84.5,129.7 84.2,130.6 C83.9,131.4 83.5,132.2 82.9,132.8 C82.3,133.3 81.6,133.8 80.7,134.1 C79.8,134.4 78.9,134.4 77.7,134.5 C76.4,134.6 74.3,134.6 73.1,134.5 C71.8,134.4 70.9,134.4 70.0,134.1 C69.2,133.8 68.5,133.3 68.0,132.8 C67.4,132.2 67.0,131.4 66.8,130.6 C66.6,129.7 66.3,132.0 66.6,127.5 C66.9,123.0 68.1,108.1 68.6,103.7 Z" fill="#C36925"/><path d="M53.4,107.9 C53.4,105.3 53.4,107.4 53.5,107.2 C53.5,107.0 53.6,106.8 53.8,106.7 C53.9,106.5 54.1,106.4 54.3,106.4 C54.5,106.3 54.7,106.3 55.0,106.3 C55.2,106.2 55.5,106.2 55.8,106.3 C56.1,106.3 56.3,106.3 56.5,106.4 C56.7,106.4 56.9,106.5 57.0,106.7 C57.2,106.8 57.3,107.0 57.3,107.2 C57.4,107.4 57.4,105.3 57.4,107.9 C57.4,110.4 57.4,120.0 57.4,122.6 C57.4,125.1 57.4,123.1 57.3,123.3 C57.3,123.5 57.2,123.7 57.0,123.8 C56.9,123.9 56.7,124.0 56.5,124.1 C56.3,124.2 56.1,124.2 55.8,124.2 C55.5,124.2 55.2,124.2 55.0,124.2 C54.7,124.2 54.5,124.2 54.3,124.1 C54.1,124.0 53.9,123.9 53.8,123.8 C53.6,123.7 53.5,123.5 53.5,123.3 C53.4,123.1 53.4,125.1 53.4,122.6 C53.4,120.0 53.4,110.4 53.4,107.9 Z" fill="#FFDAA0"/></g>
  <path d="M66.2,126.3 C64.4,126.6 62.3,126.5 60.6,126.1 C58.8,125.6 57.0,124.7 55.6,123.6 C54.3,122.5 53.1,121.0 52.3,119.5 C51.6,117.9 51.3,116.1 51.4,114.4 C51.5,112.8 52.0,111.0 52.9,109.5 C53.8,108.0 55.1,106.6 56.6,105.7 C58.1,104.7 60.0,104.0 61.8,103.7 C63.6,103.4 65.7,103.5 67.4,103.9 C69.2,104.4 71.0,105.3 72.4,106.4 C73.7,107.5 74.9,109.0 75.7,110.5 C76.4,112.1 76.7,113.9 76.6,115.6 C76.5,117.2 76.0,119.0 75.1,120.5 C74.2,122.0 72.9,123.4 71.4,124.3 C69.9,125.3 68.0,126.0 66.2,126.3 Z" fill="none" stroke="#2A1B4A" stroke-width="1.8" stroke-linecap="round" stroke-linejoin="round"/>
  <path d="M60.9,112.4 C60.6,110.6 60.7,108.5 61.2,106.6 C61.7,104.8 62.8,102.9 64.2,101.5 C65.5,100.1 67.4,98.8 69.3,98.1 C71.2,97.3 73.5,96.9 75.5,97.0 C77.6,97.1 79.9,97.6 81.7,98.5 C83.5,99.4 85.3,100.8 86.5,102.3 C87.7,103.8 88.7,105.7 89.1,107.6 C89.4,109.4 89.3,111.5 88.8,113.4 C88.3,115.2 87.2,117.1 85.8,118.5 C84.5,119.9 82.6,121.2 80.7,121.9 C78.8,122.7 76.5,123.1 74.5,123.0 C72.4,122.9 70.1,122.4 68.3,121.5 C66.5,120.6 64.7,119.2 63.5,117.7 C62.3,116.2 61.3,114.3 60.9,112.4 Z" fill="#E89A3C"/>
  <g clip-path="url(#k1816_5)"><path d="M80.2,97.6 C80.5,94.9 80.5,95.5 80.9,94.7 C81.2,93.9 81.7,93.2 82.3,92.7 C82.8,92.1 83.6,91.7 84.4,91.4 C85.3,91.1 86.3,91.1 87.4,91.0 C88.4,90.9 89.6,90.9 90.7,91.0 C91.7,91.1 92.7,91.1 93.6,91.4 C94.4,91.7 95.1,92.1 95.6,92.7 C96.2,93.2 96.6,93.9 96.9,94.7 C97.2,95.6 97.2,95.0 97.3,97.6 C97.4,100.3 97.3,106.4 97.3,110.8 C97.3,115.2 97.4,121.3 97.3,124.0 C97.2,126.7 97.2,126.2 96.9,127.1 C96.6,127.9 96.1,128.7 95.6,129.2 C95.0,129.8 94.2,130.3 93.4,130.6 C92.5,130.9 91.7,130.9 90.3,131.0 C88.9,131.1 86.2,131.1 84.7,131.0 C83.3,130.9 82.5,130.9 81.7,130.6 C80.8,130.3 80.1,129.8 79.6,129.3 C79.1,128.7 78.7,127.9 78.5,127.1 C78.2,126.2 78.1,126.7 78.2,124.0 C78.4,121.3 78.9,115.2 79.2,110.8 C79.6,106.4 80.0,100.3 80.2,97.6 Z" fill="#C36925"/><path d="M63.0,102.0 C63.0,99.0 63.0,101.4 63.1,101.1 C63.2,100.9 63.3,100.7 63.4,100.6 C63.6,100.4 63.8,100.3 64.0,100.2 C64.2,100.2 64.5,100.1 64.8,100.1 C65.1,100.1 65.4,100.1 65.7,100.1 C66.0,100.1 66.3,100.2 66.5,100.2 C66.8,100.3 67.0,100.4 67.1,100.6 C67.3,100.7 67.4,100.9 67.4,101.1 C67.5,101.4 67.5,99.0 67.6,102.0 C67.6,104.9 67.6,115.7 67.6,118.6 C67.5,121.5 67.5,119.1 67.4,119.4 C67.4,119.6 67.3,119.8 67.1,119.9 C67.0,120.1 66.8,120.2 66.5,120.3 C66.3,120.4 66.0,120.4 65.7,120.4 C65.4,120.4 65.1,120.4 64.8,120.4 C64.5,120.4 64.2,120.4 64.0,120.3 C63.8,120.2 63.6,120.1 63.4,119.9 C63.3,119.8 63.2,119.6 63.1,119.4 C63.0,119.1 63.0,121.5 63.0,118.6 C63.0,115.7 63.0,104.9 63.0,102.0 Z" fill="#FFDAA0"/></g>
  <path d="M60.9,112.4 C60.6,110.6 60.7,108.5 61.2,106.6 C61.7,104.8 62.8,102.9 64.2,101.5 C65.5,100.1 67.4,98.8 69.3,98.1 C71.2,97.3 73.5,96.9 75.5,97.0 C77.6,97.1 79.9,97.6 81.7,98.5 C83.5,99.4 85.3,100.8 86.5,102.3 C87.7,103.8 88.7,105.7 89.1,107.6 C89.4,109.4 89.3,111.5 88.8,113.4 C88.3,115.2 87.2,117.1 85.8,118.5 C84.5,119.9 82.6,121.2 80.7,121.9 C78.8,122.7 76.5,123.1 74.5,123.0 C72.4,122.9 70.1,122.4 68.3,121.5 C66.5,120.6 64.7,119.2 63.5,117.7 C62.3,116.2 61.3,114.3 60.9,112.4 Z" fill="none" stroke="#2A1B4A" stroke-width="1.8" stroke-linecap="round" stroke-linejoin="round"/>
  <path d="M76.9,123.0 C75.6,121.8 74.6,120.2 74.0,118.6 C73.4,117.0 73.2,115.2 73.5,113.5 C73.7,111.9 74.4,110.1 75.4,108.7 C76.4,107.3 77.9,106.0 79.4,105.2 C81.0,104.3 83.0,103.7 84.8,103.6 C86.6,103.4 88.7,103.6 90.4,104.2 C92.1,104.8 93.8,105.8 95.1,107.0 C96.4,108.2 97.4,109.8 98.0,111.4 C98.6,113.0 98.8,114.8 98.5,116.5 C98.3,118.1 97.6,119.9 96.6,121.3 C95.6,122.7 94.1,124.0 92.6,124.8 C91.0,125.7 89.0,126.3 87.2,126.4 C85.4,126.6 83.3,126.4 81.6,125.8 C79.9,125.2 78.2,124.2 76.9,123.0 Z" fill="#E89A3C"/>
  <g clip-path="url(#k1816_6)"><path d="M90.6,103.7 C91.0,99.3 90.8,101.8 91.2,101.0 C91.5,100.2 91.9,99.6 92.5,99.1 C93.1,98.5 93.7,98.1 94.5,97.9 C95.3,97.6 96.3,97.6 97.3,97.5 C98.3,97.4 99.4,97.4 100.4,97.5 C101.4,97.6 102.4,97.6 103.1,97.9 C103.9,98.1 104.6,98.5 105.1,99.1 C105.6,99.6 106.0,100.2 106.3,101.0 C106.5,101.8 106.6,99.3 106.6,103.7 C106.7,108.2 106.7,123.0 106.6,127.5 C106.6,132.0 106.5,129.7 106.2,130.6 C105.9,131.4 105.5,132.2 104.9,132.8 C104.3,133.3 103.6,133.8 102.7,134.1 C101.8,134.4 100.9,134.4 99.6,134.5 C98.4,134.6 96.3,134.6 95.1,134.5 C93.8,134.4 92.9,134.4 92.0,134.1 C91.2,133.8 90.5,133.3 90.0,132.8 C89.4,132.2 89.0,131.4 88.8,130.6 C88.6,129.7 88.3,132.0 88.6,127.5 C88.9,123.0 90.1,108.1 90.6,103.7 Z" fill="#C36925"/><path d="M75.4,107.9 C75.4,105.3 75.4,107.4 75.5,107.2 C75.5,107.0 75.6,106.8 75.8,106.7 C75.9,106.5 76.1,106.4 76.3,106.4 C76.5,106.3 76.7,106.3 77.0,106.3 C77.2,106.2 77.5,106.2 77.8,106.3 C78.1,106.3 78.3,106.3 78.5,106.4 C78.7,106.4 78.9,106.5 79.0,106.7 C79.2,106.8 79.3,107.0 79.3,107.2 C79.4,107.4 79.4,105.3 79.4,107.9 C79.4,110.4 79.4,120.0 79.4,122.6 C79.4,125.1 79.4,123.1 79.3,123.3 C79.3,123.5 79.2,123.7 79.0,123.8 C78.9,123.9 78.7,124.0 78.5,124.1 C78.3,124.2 78.1,124.2 77.8,124.2 C77.5,124.2 77.2,124.2 77.0,124.2 C76.7,124.2 76.5,124.2 76.3,124.1 C76.1,124.0 75.9,123.9 75.8,123.8 C75.6,123.7 75.5,123.5 75.5,123.3 C75.4,123.1 75.4,125.1 75.4,122.6 C75.4,120.0 75.4,110.4 75.4,107.9 Z" fill="#FFDAA0"/></g>
  <path d="M76.9,123.0 C75.6,121.8 74.6,120.2 74.0,118.6 C73.4,117.0 73.2,115.2 73.5,113.5 C73.7,111.9 74.4,110.1 75.4,108.7 C76.4,107.3 77.9,106.0 79.4,105.2 C81.0,104.3 83.0,103.7 84.8,103.6 C86.6,103.4 88.7,103.6 90.4,104.2 C92.1,104.8 93.8,105.8 95.1,107.0 C96.4,108.2 97.4,109.8 98.0,111.4 C98.6,113.0 98.8,114.8 98.5,116.5 C98.3,118.1 97.6,119.9 96.6,121.3 C95.6,122.7 94.1,124.0 92.6,124.8 C91.0,125.7 89.0,126.3 87.2,126.4 C85.4,126.6 83.3,126.4 81.6,125.8 C79.9,125.2 78.2,124.2 76.9,123.0 Z" fill="none" stroke="#2A1B4A" stroke-width="1.8" stroke-linecap="round" stroke-linejoin="round"/>
  <path d="M87.4,115.1 C88.2,113.8 89.4,112.6 90.7,111.8 C92.0,111.0 93.7,110.4 95.3,110.1 C96.8,109.9 98.6,110.0 100.1,110.4 C101.7,110.8 103.2,111.6 104.4,112.6 C105.6,113.6 106.6,114.9 107.2,116.3 C107.8,117.6 108.1,119.2 108.0,120.7 C107.9,122.1 107.4,123.7 106.6,124.9 C105.8,126.2 104.6,127.4 103.3,128.2 C102.0,129.0 100.3,129.6 98.7,129.9 C97.2,130.1 95.4,130.0 93.9,129.6 C92.3,129.2 90.8,128.4 89.6,127.4 C88.4,126.4 87.4,125.1 86.8,123.7 C86.2,122.4 85.9,120.8 86.0,119.3 C86.1,117.9 86.6,116.3 87.4,115.1 Z" fill="#E89A3C"/>
  <g clip-path="url(#k1816_7)"><path d="M100.9,109.8 C101.3,105.9 101.2,108.0 101.5,107.3 C101.8,106.5 102.2,105.9 102.7,105.5 C103.3,105.0 103.9,104.6 104.7,104.4 C105.4,104.1 106.3,104.1 107.2,104.0 C108.2,103.9 109.2,103.9 110.2,104.0 C111.1,104.1 112.0,104.1 112.7,104.4 C113.4,104.6 114.1,105.0 114.5,105.5 C115.0,105.9 115.4,106.6 115.6,107.3 C115.9,108.0 115.9,105.9 116.0,109.8 C116.1,113.8 116.1,127.0 116.0,131.0 C115.9,135.0 115.9,133.2 115.6,134.1 C115.3,134.9 114.8,135.7 114.2,136.2 C113.7,136.8 112.9,137.3 112.1,137.6 C111.2,137.9 110.1,137.9 109.0,138.0 C107.9,138.1 106.5,138.1 105.4,138.0 C104.3,137.9 103.2,137.9 102.4,137.6 C101.5,137.3 100.8,136.8 100.3,136.3 C99.8,135.7 99.4,134.9 99.2,134.1 C99.0,133.2 98.7,135.1 99.0,131.0 C99.3,127.0 100.5,113.8 100.9,109.8 Z" fill="#C36925"/><path d="M87.8,113.8 C87.8,111.6 87.8,113.4 87.8,113.2 C87.9,113.0 88.0,112.9 88.1,112.8 C88.2,112.6 88.4,112.5 88.6,112.5 C88.7,112.4 88.9,112.4 89.2,112.4 C89.4,112.4 89.7,112.4 89.9,112.4 C90.1,112.4 90.3,112.4 90.5,112.5 C90.7,112.5 90.8,112.6 90.9,112.8 C91.0,112.9 91.1,113.0 91.2,113.2 C91.3,113.4 91.3,111.6 91.3,113.8 C91.3,116.0 91.3,124.4 91.3,126.6 C91.3,128.8 91.3,127.0 91.2,127.2 C91.1,127.4 91.0,127.5 90.9,127.6 C90.8,127.8 90.7,127.9 90.5,127.9 C90.3,128.0 90.1,128.0 89.9,128.0 C89.7,128.0 89.4,128.0 89.2,128.0 C88.9,128.0 88.7,128.0 88.6,127.9 C88.4,127.9 88.2,127.8 88.1,127.6 C88.0,127.5 87.9,127.4 87.8,127.2 C87.8,127.0 87.8,128.8 87.8,126.6 C87.7,124.4 87.7,116.0 87.8,113.8 Z" fill="#FFDAA0"/></g>
  <path d="M87.4,115.1 C88.2,113.8 89.4,112.6 90.7,111.8 C92.0,111.0 93.7,110.4 95.3,110.1 C96.8,109.9 98.6,110.0 100.1,110.4 C101.7,110.8 103.2,111.6 104.4,112.6 C105.6,113.6 106.6,114.9 107.2,116.3 C107.8,117.6 108.1,119.2 108.0,120.7 C107.9,122.1 107.4,123.7 106.6,124.9 C105.8,126.2 104.6,127.4 103.3,128.2 C102.0,129.0 100.3,129.6 98.7,129.9 C97.2,130.1 95.4,130.0 93.9,129.6 C92.3,129.2 90.8,128.4 89.6,127.4 C88.4,126.4 87.4,125.1 86.8,123.7 C86.2,122.4 85.9,120.8 86.0,119.3 C86.1,117.9 86.6,116.3 87.4,115.1 Z" fill="none" stroke="#2A1B4A" stroke-width="1.8" stroke-linecap="round" stroke-linejoin="round"/>
  <path d="M22.0,153.2 C22.1,149.4 22.1,151.0 22.4,150.1 C22.7,149.3 23.2,148.5 23.8,147.9 C24.3,147.4 25.1,146.9 25.9,146.6 C26.8,146.3 26.3,146.3 29.0,146.2 C31.7,146.1 37.8,146.2 42.1,146.2 C46.5,146.2 50.9,146.2 55.3,146.2 C59.7,146.2 64.0,146.2 68.4,146.2 C72.8,146.2 77.2,146.2 81.6,146.2 C86.0,146.2 90.3,146.2 94.7,146.2 C99.1,146.2 103.5,146.2 107.9,146.2 C112.2,146.2 118.3,146.1 121.0,146.2 C123.7,146.3 123.2,146.3 124.1,146.6 C124.9,146.9 125.7,147.4 126.2,147.9 C126.8,148.5 127.3,149.3 127.6,150.1 C127.9,151.0 127.9,149.4 128.0,153.2 C128.1,157.0 128.1,169.2 128.0,173.0 C127.9,176.8 127.9,175.2 127.6,176.1 C127.3,176.9 126.8,177.7 126.2,178.2 C125.7,178.8 124.9,179.3 124.1,179.6 C123.2,179.9 123.7,179.9 121.0,180.0 C118.3,180.1 112.2,180.0 107.9,180.0 C103.5,180.0 99.1,180.0 94.7,180.0 C90.3,180.0 86.0,180.0 81.6,180.0 C77.2,180.0 72.8,180.0 68.4,180.0 C64.0,180.0 59.7,180.0 55.3,180.0 C50.9,180.0 46.5,180.0 42.1,180.0 C37.8,180.0 31.7,180.1 29.0,180.0 C26.3,179.9 26.8,179.9 25.9,179.6 C25.1,179.3 24.3,178.8 23.8,178.2 C23.2,177.7 22.7,176.9 22.4,176.1 C22.1,175.2 22.1,176.8 22.0,173.0 C21.9,169.2 21.9,157.0 22.0,153.2 Z" fill="#FFFDF2"/>
  <path d="M22.0,153.2 C22.1,149.4 22.1,151.0 22.4,150.1 C22.7,149.3 23.2,148.5 23.8,147.9 C24.3,147.4 25.1,146.9 25.9,146.6 C26.8,146.3 26.3,146.3 29.0,146.2 C31.7,146.1 37.8,146.2 42.1,146.2 C46.5,146.2 50.9,146.2 55.3,146.2 C59.7,146.2 64.0,146.2 68.4,146.2 C72.8,146.2 77.2,146.2 81.6,146.2 C86.0,146.2 90.3,146.2 94.7,146.2 C99.1,146.2 103.5,146.2 107.9,146.2 C112.2,146.2 118.3,146.1 121.0,146.2 C123.7,146.3 123.2,146.3 124.1,146.6 C124.9,146.9 125.7,147.4 126.2,147.9 C126.8,148.5 127.3,149.3 127.6,150.1 C127.9,151.0 127.9,149.4 128.0,153.2 C128.1,157.0 128.1,169.2 128.0,173.0 C127.9,176.8 127.9,175.2 127.6,176.1 C127.3,176.9 126.8,177.7 126.2,178.2 C125.7,178.8 124.9,179.3 124.1,179.6 C123.2,179.9 123.7,179.9 121.0,180.0 C118.3,180.1 112.2,180.0 107.9,180.0 C103.5,180.0 99.1,180.0 94.7,180.0 C90.3,180.0 86.0,180.0 81.6,180.0 C77.2,180.0 72.8,180.0 68.4,180.0 C64.0,180.0 59.7,180.0 55.3,180.0 C50.9,180.0 46.5,180.0 42.1,180.0 C37.8,180.0 31.7,180.1 29.0,180.0 C26.3,179.9 26.8,179.9 25.9,179.6 C25.1,179.3 24.3,178.8 23.8,178.2 C23.2,177.7 22.7,176.9 22.4,176.1 C22.1,175.2 22.1,176.8 22.0,173.0 C21.9,169.2 21.9,157.0 22.0,153.2 Z" fill="none" stroke="#2A1B4A" stroke-width="1.8" stroke-linecap="round" stroke-linejoin="round"/>
</svg>